<?xml version="1.0" encoding="UTF-8"?>
<svg id="Layer_2" data-name="Layer 2" xmlns="http://www.w3.org/2000/svg" viewBox="0 0 194.56 61.66">
  <defs>
    <style>
      .cls-1 {
        fill: #214579;
      }

      .cls-2 {
        fill: #417337;
      }
    </style>
  </defs>
  <g id="Layer_1-2" data-name="Layer 1">
    <g>
      <g>
        <path class="cls-2" d="m15.16,33.94h25.74c8.37,0,15.16,6.79,15.16,15.16v12.57H0v-12.57c0-8.37,6.79-15.16,15.16-15.16Z"/>
        <circle class="cls-2" cx="28.03" cy="15.04" r="15.04"/>
      </g>
      <g>
        <path class="cls-1" d="m153.67,33.94h25.74c8.37,0,15.16,6.79,15.16,15.16v12.57h-56.05v-12.57c0-8.37,6.79-15.16,15.16-15.16Z"/>
        <circle class="cls-1" cx="166.54" cy="15.04" r="15.04"/>
      </g>
      <g>
        <polygon class="cls-2" points="81.2 33.94 69.05 22.27 69.05 45.61 81.2 33.94"/>
        <rect class="cls-2" x="64.06" y="28.85" width="5.98" height="10.18"/>
      </g>
      <path class="cls-2" d="m87.28,29.66c-.39,0-.78-.14-1.08-.43l-12.15-11.67c-.62-.6-.64-1.58-.04-2.2.6-.62,1.58-.64,2.2-.04l12.15,11.67c.62.6.64,1.58.04,2.2-.31.32-.71.48-1.12.48Z"/>
      <path class="cls-2" d="m104.06,29.66c-.41,0-.82-.16-1.12-.48-.59-.62-.58-1.6.04-2.2l12.15-11.67c.62-.59,1.6-.57,2.2.04.59.62.58,1.6-.04,2.2l-12.15,11.67c-.3.29-.69.43-1.08.43Z"/>
      <path class="cls-2" d="m95.67,29.66c-.86,0-1.56-.7-1.56-1.56v-14.92c0-.86.7-1.56,1.56-1.56s1.56.7,1.56,1.56v14.92c0,.86-.7,1.56-1.56,1.56Z"/>
      <g>
        <polygon class="cls-1" points="110.13 35.92 122.29 47.59 122.29 24.25 110.13 35.92"/>
        <rect class="cls-1" x="121.3" y="30.83" width="5.98" height="10.18" transform="translate(248.57 71.84) rotate(-180)"/>
      </g>
      <path class="cls-1" d="m116.21,54.99c-.39,0-.78-.14-1.08-.43l-12.15-11.67c-.62-.59-.64-1.58-.04-2.2.6-.62,1.58-.64,2.2-.04l12.15,11.67c.62.59.64,1.58.04,2.2-.31.32-.71.48-1.12.48Z"/>
      <path class="cls-1" d="m75.13,54.99c-.41,0-.82-.16-1.12-.48-.59-.62-.58-1.6.04-2.2l12.15-11.67c.62-.6,1.6-.58,2.2.04.59.62.58,1.6-.04,2.2l-12.15,11.67c-.3.29-.69.43-1.08.43Z"/>
      <path class="cls-1" d="m95.67,58.23c-.86,0-1.56-.7-1.56-1.56v-14.92c0-.86.7-1.56,1.56-1.56s1.56.7,1.56,1.56v14.92c0,.86-.7,1.56-1.56,1.56Z"/>
    </g>
  </g>
</svg>