<?xml version="1.0" encoding="utf-8"?>
<!-- Generator: Adobe Illustrator 27.4.1, SVG Export Plug-In . SVG Version: 6.00 Build 0)  -->
<svg version="1.1" id="Layer_1" xmlns="http://www.w3.org/2000/svg" xmlns:xlink="http://www.w3.org/1999/xlink" x="0px" y="0px"
	 viewBox="0 0 300 300" style="enable-background:new 0 0 300 300;" xml:space="preserve">
<style type="text/css">
	.st0{fill:#FFFFFF;}
</style>
<g>
	<g>
		<g>
			<path class="st0" d="M92.1,179.3h-80v-11.9c0-15.3,12.4-27.6,27.6-27.6h24.7c15.3,0,27.6,12.4,27.6,27.6V179.3z"/>
		</g>
		<g>
			<circle class="st0" cx="52.1" cy="112.8" r="21.5"/>
		</g>
	</g>
	<g>
		<g>
			<path class="st0" d="M289.7,179.3l-80,0v-11.9c0-15.3,12.4-27.6,27.6-27.6l24.7,0c15.3,0,27.6,12.4,27.6,27.6V179.3z"/>
		</g>
		<g>
			<circle class="st0" cx="249.7" cy="112.8" r="21.5"/>
		</g>
	</g>
	<g>
		<g>
			<polygon class="st0" points="128,139.8 110.6,123.1 110.6,156.4 			"/>
		</g>
		<g>
			<rect x="103.5" y="132.5" class="st0" width="8.5" height="14.5"/>
		</g>
	</g>
	<g>
		<path class="st0" d="M136.6,133.7c-0.6,0-1.1-0.2-1.5-0.6l-17.3-16.7c-0.9-0.8-0.9-2.3-0.1-3.1c0.8-0.9,2.3-0.9,3.1-0.1l17.3,16.7
			c0.9,0.8,0.9,2.3,0.1,3.1C137.8,133.4,137.2,133.7,136.6,133.7z"/>
	</g>
	<g>
		<path class="st0" d="M160.6,133.7c-0.6,0-1.2-0.2-1.6-0.7c-0.8-0.9-0.8-2.3,0.1-3.1l17.3-16.7c0.9-0.8,2.3-0.8,3.1,0.1
			c0.8,0.9,0.8,2.3-0.1,3.1L162.1,133C161.7,133.5,161.1,133.7,160.6,133.7z"/>
	</g>
	<g>
		<path class="st0" d="M148.6,133.7c-1.2,0-2.2-1-2.2-2.2v-21.3c0-1.2,1-2.2,2.2-2.2c1.2,0,2.2,1,2.2,2.2v21.3
			C150.8,132.7,149.8,133.7,148.6,133.7z"/>
	</g>
	<g>
		<g>
			<polygon class="st0" points="169.2,142.6 186.6,159.2 186.6,125.9 			"/>
		</g>
		<g>
			
				<rect x="185.2" y="135.3" transform="matrix(-1 -4.943524e-11 4.943524e-11 -1 378.8606 285.1802)" class="st0" width="8.5" height="14.5"/>
		</g>
	</g>
	<g>
		<path class="st0" d="M177.9,169.8c-0.6,0-1.1-0.2-1.5-0.6L159,152.5c-0.9-0.8-0.9-2.3-0.1-3.1c0.8-0.9,2.3-0.9,3.1-0.1l17.3,16.7
			c0.9,0.8,0.9,2.3,0.1,3.1C179.1,169.6,178.5,169.8,177.9,169.8z"/>
	</g>
	<g>
		<path class="st0" d="M119.3,169.8c-0.6,0-1.2-0.2-1.6-0.7c-0.8-0.9-0.8-2.3,0.1-3.1l17.3-16.7c0.9-0.8,2.3-0.8,3.1,0.1
			c0.8,0.9,0.8,2.3-0.1,3.1l-17.3,16.7C120.4,169.6,119.8,169.8,119.3,169.8z"/>
	</g>
	<g>
		<path class="st0" d="M148.6,174.4c-1.2,0-2.2-1-2.2-2.2v-21.3c0-1.2,1-2.2,2.2-2.2c1.2,0,2.2,1,2.2,2.2v21.3
			C150.8,173.4,149.8,174.4,148.6,174.4z"/>
	</g>
</g>
</svg>
