<?xml version="1.0" encoding="UTF-8"?>
<svg id="Layer_2" data-name="Layer 2" xmlns="http://www.w3.org/2000/svg" viewBox="0 0 122.55 133.55">
  <defs>
    <style>
      .cls-1 {
        fill: #214579;
      }

      .cls-2 {
        fill: #417337;
      }
    </style>
  </defs>
  <g id="Layer_1-2" data-name="Layer 1">
    <g>
      <path class="cls-2" d="m78.22,42.13c-61.5-15.62-61.17,42.55-17.41,59.5-6.06-.66.69,8.21-4.86,6.32-10.34-3.53-30.41-15.08-38.44-32.56-4.44-9.66-3.92-21.03,2.17-29.74,14.87-21.24,51.5-13.89,58.54-3.52Z"/>
      <g>
        <circle class="cls-2" cx="8.75" cy="49.75" r="1.28"/>
        <circle class="cls-2" cx="7.03" cy="57.38" r="1.78"/>
        <circle class="cls-2" cx="6.7" cy="65.93" r="2.33"/>
        <circle class="cls-2" cx="7.78" cy="74.51" r="2.92"/>
        <circle class="cls-2" cx="10.29" cy="82.25" r="3.52"/>
        <circle class="cls-2" cx="16.02" cy="91.33" r="2.92"/>
        <circle class="cls-2" cx="23.26" cy="98.36" r="2.33"/>
        <circle class="cls-2" cx="31.31" cy="103.99" r="1.78"/>
        <circle class="cls-2" cx="39.47" cy="108.87" r="1.28"/>
      </g>
      <circle class="cls-2" cx="10.85" cy="31.27" r="10.85"/>
      <path class="cls-1" d="m37,26.18c43.38-8.64,85.27,26.59,36.48,61.4-27.97,19.95-31.55,30.66-36.48,45.97,8.66-14.38,25.42-26.63,47.45-41.1C151.19,48.62,81.21,2.24,37,26.18Z"/>
      <g>
        <circle class="cls-1" cx="48.9" cy="130.62" r="1.37"/>
        <circle class="cls-1" cx="53.43" cy="125.75" r="1.66"/>
        <circle class="cls-1" cx="58.76" cy="120.85" r="1.95"/>
        <circle class="cls-1" cx="64.91" cy="115.83" r="2.24"/>
        <circle class="cls-1" cx="71.9" cy="110.62" r="2.53"/>
        <circle class="cls-1" cx="79.74" cy="105.15" r="2.81"/>
        <circle class="cls-1" cx="88.43" cy="99.34" r="3.1"/>
        <circle class="cls-1" cx="95.18" cy="94.55" r="3.39"/>
        <circle class="cls-1" cx="101.84" cy="88.93" r="3.68"/>
        <circle class="cls-1" cx="108.02" cy="82.61" r="3.39"/>
        <circle class="cls-1" cx="113.39" cy="75.66" r="3.1"/>
        <circle class="cls-1" cx="117.5" cy="68.22" r="2.81"/>
        <circle class="cls-1" cx="119.94" cy="60.43" r="2.53"/>
        <circle class="cls-1" cx="120.31" cy="52.41" r="2.24"/>
        <circle class="cls-1" cx="118.21" cy="44.33" r="1.95"/>
        <circle class="cls-1" cx="114.6" cy="36.79" r="1.66"/>
        <circle class="cls-1" cx="109.55" cy="29.89" r="1.37"/>
      </g>
      <circle class="cls-1" cx="105.52" cy="12.22" r="12.22"/>
    </g>
  </g>
</svg>