<?xml version="1.0" encoding="utf-8"?>
<!-- Generator: Adobe Illustrator 27.4.1, SVG Export Plug-In . SVG Version: 6.00 Build 0)  -->
<svg version="1.1" id="Layer_1" xmlns="http://www.w3.org/2000/svg" xmlns:xlink="http://www.w3.org/1999/xlink" x="0px" y="0px"
	 viewBox="0 0 300 300" style="enable-background:new 0 0 300 300;" xml:space="preserve">
<style type="text/css">
	.st0{fill:#FFFFFF;}
</style>
<g>
	<circle class="st0" cx="59.7" cy="86.4" r="19.7"/>
	<g>
		<path class="st0" d="M181.9,106.1C70.4,77.8,71,183.3,150.3,214c-11-1.2,1.2,14.9-8.8,11.5c-18.8-6.4-55.1-27.4-69.7-59
			c-8.1-17.5-7.1-38.1,3.9-53.9C102.7,74,169.1,87.3,181.9,106.1z"/>
		<g>
			<circle class="st0" cx="55.9" cy="119.9" r="2.3"/>
			<circle class="st0" cx="52.8" cy="133.7" r="3.2"/>
			<circle class="st0" cx="52.2" cy="149.2" r="4.2"/>
			<circle class="st0" cx="54.1" cy="164.8" r="5.3"/>
			<circle class="st0" cx="58.7" cy="178.8" r="6.4"/>
			<circle class="st0" cx="69.1" cy="195.3" r="5.3"/>
			<circle class="st0" cx="82.2" cy="208.1" r="4.2"/>
			<circle class="st0" cx="96.8" cy="218.3" r="3.2"/>
			<circle class="st0" cx="111.6" cy="227.1" r="2.3"/>
		</g>
		<path class="st0" d="M107.1,77.2c78.7-15.7,154.6,48.2,66.1,111.3c-50.7,36.2-57.2,55.6-66.1,83.4c15.7-26.1,46.1-48.3,86-74.5
			C314.2,117.9,187.3,33.8,107.1,77.2z"/>
		<g>
			<circle class="st0" cx="128.7" cy="266.6" r="2.5"/>
			<circle class="st0" cx="136.9" cy="257.7" r="3"/>
			<circle class="st0" cx="146.6" cy="248.8" r="3.5"/>
			<circle class="st0" cx="157.7" cy="239.7" r="4.1"/>
			<circle class="st0" cx="170.4" cy="230.3" r="4.6"/>
			<circle class="st0" cx="184.6" cy="220.4" r="5.1"/>
			<circle class="st0" cx="200.4" cy="209.8" r="5.6"/>
			<circle class="st0" cx="212.6" cy="201.1" r="6.1"/>
			<circle class="st0" cx="224.7" cy="191" r="6.7"/>
			<circle class="st0" cx="235.9" cy="179.5" r="6.1"/>
			<circle class="st0" cx="245.6" cy="166.9" r="5.6"/>
			<circle class="st0" cx="253.1" cy="153.4" r="5.1"/>
			<circle class="st0" cx="257.5" cy="139.3" r="4.6"/>
			<circle class="st0" cx="258.2" cy="124.7" r="4.1"/>
			<circle class="st0" cx="254.4" cy="110.1" r="3.5"/>
			<circle class="st0" cx="247.8" cy="96.4" r="3"/>
			<circle class="st0" cx="238.7" cy="83.9" r="2.5"/>
		</g>
		<circle class="st0" cx="231.4" cy="51.9" r="22.2"/>
	</g>
</g>
</svg>
