<?xml version="1.0" encoding="utf-8"?>
<!-- Generator: Adobe Illustrator 27.4.1, SVG Export Plug-In . SVG Version: 6.00 Build 0)  -->
<svg version="1.1" id="Layer_1" xmlns="http://www.w3.org/2000/svg" xmlns:xlink="http://www.w3.org/1999/xlink" x="0px" y="0px"
	 viewBox="0 0 300 300" style="enable-background:new 0 0 300 300;" xml:space="preserve">
<style type="text/css">
	.st0{fill:#FFFFFF;}
</style>
<g>
	<path class="st0" d="M140.6,113.1c-7.5,15.8-12,33.4-9.7,50.7c4.1,35.1,35.2,57.7,69.3,57.9c3.3,0.1,6.6,0,9.9-0.3l0.2,0l0.4,0
		c0.3-0.1,0.6-0.1,0.8-0.2c4.5-1,7.1-6.7,5.4-10.7c-0.5-1.4-1.7-2.7-3-3.5c0,0-0.3-0.2-0.3-0.2l-1.2-0.7c-6.9-4-14.9-5.4-23.2-4.5
		c-14.4,1.5-28.6,9.1-40.9,17.1c-5.9,3.6-12.9,6.8-19.1,9.8c-11.1,5.5-23.6,10.2-36.4,10c-3,0-6-0.1-8.9-0.9
		c-13.1-2.9-22.7-16.6-19.7-30c2.1-10.1,10.9-16.4,20.9-16.9c12.3-1.2,25.5,2.7,34.6,10.2c-9-1.6-17.7-2.2-26.5-0.5
		c-6.6,1.3-13.9,3-14.5,9.7c-0.5,5.1,3.8,10.2,8.9,10.9c1.5,0.3,3.3,0.2,4.8,0.2c2-0.1,4-0.3,5.9-0.5c10.3-1.4,20.2-6.4,29.7-10.7
		c1.7-0.8,4.4-2,6-2.8c3.9-1.9,7.7-4.3,11.4-6.5c21.2-12.8,49.5-22.8,73.3-10.1c1.3,0.6,2.8,1.6,4,2.3c7.3,4.5,11.8,13.2,11.1,21.7
		c-0.5,11.4-9.5,21.7-20.9,23.2c-14.5,1.6-29.2,0.1-43.1-4.7c-29.1-9.8-51.4-37.4-52.8-68.3C116.3,145.4,124.9,124.8,140.6,113.1
		L140.6,113.1z"/>
	<path class="st0" d="M162.7,114.5c18.1,10.5,27.3,32.4,22.2,52.7c-0.2,0.7-0.5,2.2-0.7,2.9c-0.3,1.1-0.8,2.1-1.5,3
		c-3.2,4.9-10,6.7-15.2,4c-4.7-2.5-9-5.7-12.4-9.8c-8.1-9.4-10.6-23.1-6.4-34.7c5.7,13.9,11.4,23.8,25.8,29.9
		c-2.1-1.2-5.4,0.1-6,2.6c0-0.2,0.4-1.6,0.4-1.8C173.2,146,168.3,131,162.7,114.5L162.7,114.5z"/>
	<path class="st0" d="M176.7,81.4c-0.9,12.6-11.6,23.6-24.2,24c-13,0.3-22.8-11.6-24.2-24c-1.8-13.6,6.9-27.9,21.2-30
		C167.3,48.9,178.3,65.3,176.7,81.4L176.7,81.4z M166.5,81.4c-0.8-7.2-6.9-13.3-13.9-13.8c-7.4-0.2-12.6,6.5-13.9,13.8
		c-1.8,9,4,19.7,13.9,20C163.1,101.7,167.8,90.5,166.5,81.4L166.5,81.4z"/>
</g>
</svg>
