<?xml version="1.0" encoding="UTF-8"?>
<svg id="Layer_2" data-name="Layer 2" xmlns="http://www.w3.org/2000/svg" viewBox="0 0 90.15 99.12">
  <defs>
    <style>
      .cls-1 {
        fill: #214579;
      }

      .cls-2 {
        fill: #417337;
      }
    </style>
  </defs>
  <g id="Layer_1-2" data-name="Layer 1">
    <g>
      <path class="cls-2" d="m40.6,32.78c-3.96,8.34-6.35,17.68-5.13,26.8,2.16,18.57,18.63,30.53,36.68,30.61,1.75.05,3.5-.02,5.24-.14l.12-.02.24-.03c.15-.03.3-.06.45-.09,2.37-.51,3.75-3.54,2.87-5.65-.27-.76-.87-1.41-1.56-1.86l-.16-.1-.64-.39c-3.66-2.11-7.86-2.85-12.3-2.36-7.61.8-15.14,4.81-21.61,9.05-3.11,1.92-6.83,3.59-10.12,5.21-5.85,2.9-12.5,5.38-19.24,5.27-1.56.01-3.16-.06-4.7-.46-6.93-1.54-12.02-8.76-10.44-15.88,1.12-5.32,5.79-8.66,11.03-8.93,6.51-.61,13.47,1.41,18.32,5.41-4.76-.85-9.35-1.15-14.03-.24-3.51.71-7.33,1.56-7.65,5.15-.24,2.71,2,5.39,4.73,5.79.78.16,1.74.12,2.55.09,1.05-.03,2.09-.14,3.14-.27,5.43-.74,10.67-3.36,15.72-5.68.92-.42,2.31-1.07,3.19-1.5,2.09-1.01,4.07-2.27,6.06-3.46,11.23-6.78,26.17-12.05,38.77-5.33.69.32,1.45.83,2.11,1.21,3.87,2.4,6.22,6.97,5.88,11.5-.27,6.03-5.01,11.46-11.04,12.28-7.66.83-15.44.08-22.79-2.47-15.39-5.18-27.18-19.78-27.9-36.15-.64-10.31,3.93-21.25,12.21-27.39h0Z"/>
      <path class="cls-1" d="m52.28,33.49c9.56,5.58,14.44,17.11,11.73,27.89-.1.37-.27,1.16-.4,1.53-.18.56-.44,1.11-.78,1.6-1.7,2.59-5.29,3.54-8.03,2.13-2.46-1.33-4.75-3.04-6.56-5.2-4.31-4.95-5.59-12.19-3.39-18.33,3.03,7.37,6.01,12.57,13.64,15.84-1.12-.65-2.85.04-3.19,1.38.03-.1.19-.82.22-.95,2.34-9.18-.27-17.14-3.24-25.89h0Z"/>
      <path class="cls-1" d="m59.73,16c-.49,6.67-6.13,12.49-12.78,12.71-6.87.17-12.07-6.15-12.78-12.71-.93-7.18,3.67-14.77,11.19-15.87,9.37-1.31,15.18,7.34,14.36,15.87h0Zm-5.42,0c-.4-3.79-3.64-7.05-7.36-7.29-3.9-.11-6.64,3.44-7.36,7.29-.94,4.78,2.12,10.4,7.36,10.6,5.56.12,8.05-5.81,7.36-10.6h0Z"/>
    </g>
  </g>
</svg>