<?xml version="1.0" encoding="UTF-8"?>
<svg id="Layer_2" data-name="Layer 2" xmlns="http://www.w3.org/2000/svg" viewBox="0 0 127.63 126.21">
  <defs>
    <style>
      .cls-1 {
        fill: #214579;
      }

      .cls-2 {
        fill: #427337;
      }
    </style>
  </defs>
  <g id="Layer_1-2" data-name="Layer 1">
    <g>
      <path class="cls-1" d="m64.03,28.28c-7.8,0-14.14-6.34-14.14-14.14S56.23,0,64.03,0s14.14,6.34,14.14,14.14-6.34,14.14-14.14,14.14Zm0-24.5c-5.71,0-10.35,4.64-10.35,10.35s4.64,10.35,10.35,10.35,10.35-4.64,10.35-10.35-4.64-10.35-10.35-10.35Z"/>
      <rect class="cls-2" y="34.82" width="24.01" height="3.79"/>
      <polygon class="cls-2" points="18.86 44.55 16.18 41.88 21.33 36.72 16.17 31.56 18.85 28.88 26.69 36.72 18.86 44.55"/>
      <g>
        <rect class="cls-2" x="109.65" y="48.78" width="17.98" height="3.79"/>
        <polygon class="cls-2" points="114.8 58.51 106.97 50.68 114.81 42.83 117.49 45.51 112.32 50.68 117.48 55.83 114.8 58.51"/>
      </g>
      <g>
        <rect class="cls-2" x="95.43" y="81.27" width="19.28" height="3.79"/>
        <polygon class="cls-2" points="100.59 91 92.75 83.17 100.6 75.33 103.28 78.01 98.11 83.17 103.27 88.33 100.59 91"/>
      </g>
      <g>
        <rect class="cls-2" x="11.31" y="103.52" width="19.28" height="3.79"/>
        <polygon class="cls-2" points="25.43 113.26 22.75 110.58 27.9 105.42 22.74 100.26 25.42 97.58 33.26 105.42 25.43 113.26"/>
      </g>
      <path class="cls-1" d="m76.63,126.21c-3.45,0-6.94-2.13-7.01-6.2l-4.79-38.97c-.12-.9-.5-1.28-.67-1.28h0c-.19,0-.59.39-.73,1.32l-4.92,38.93c-.07,4.07-3.57,6.2-7.03,6.2s-7.03-2.17-7.03-6.32v-8.61h3.79v8.61c0,2,2.04,2.54,3.24,2.54s3.24-.53,3.24-2.54l.02-.24,4.94-39.07c.46-3.21,2.59-4.61,4.51-4.6,1.9.01,3.99,1.44,4.4,4.59l4.82,39.2v.12c0,2,2.03,2.54,3.22,2.54s3.18-.52,3.22-2.48l-1.76-24.74,3.78-.27,1.77,24.95c0,4.15-3.53,6.32-7.01,6.32Z"/>
      <path class="cls-2" d="m45.46,113.24c-4.31,0-7.82-3.51-7.82-7.82s3.51-7.82,7.82-7.82,7.82,3.51,7.82,7.82-3.51,7.82-7.82,7.82Zm0-11.86c-2.23,0-4.04,1.81-4.04,4.04s1.81,4.04,4.04,4.04,4.04-1.81,4.04-4.04-1.81-4.04-4.04-4.04Z"/>
      <path class="cls-1" d="m50.53,92.94l-3.79-.1,1.04-38.8-6.11,14.02c-.03.06-.06.12-.09.18-.97,1.71-2.7,2.69-4.73,2.7h-.03c-2.63,0-5.38-1.58-6.7-3.84-1.01-1.73-1.05-3.68-.13-5.37l6.16-13.54,3.45,1.57-6.19,13.61c-.02.05-.05.1-.08.15-.19.34-.4.88.06,1.66.63,1.09,2.17,1.97,3.43,1.97h.01c.84,0,1.21-.39,1.42-.72l9.96-22.84c.36-.83,1.26-1.29,2.15-1.09.88.2,1.51.99,1.48,1.9l-1.31,48.53Z"/>
      <path class="cls-1" d="m80.23,77.64h-3.79v-33.35c0-.9.63-1.68,1.52-1.86.88-.18,1.77.29,2.12,1.12l9.6,22.58c.17.33.47.71,1.27.77,1.22.09,2.77-.66,3.45-1.67.44-.65.34-1.12.19-1.46l-3.74-6.57,3.29-1.87,3.77,6.64s.04.07.06.11c.83,1.72.67,3.64-.44,5.28-1.46,2.14-4.27,3.51-6.86,3.32-1.98-.14-3.59-1.21-4.42-2.93-.01-.03-.03-.06-.04-.08l-5.98-14.07v24.05Z"/>
      <path class="cls-1" d="m85.65,40.81c-1.28-4.59-3.4-7.65-6.47-9.35-1.39-.77-3.05-1.18-4.79-1.18h-20.79c-1.89,0-3.7.58-5.24,1.69-.92.66-1.9,1.47-2.92,2.42l-2.58-2.77c1.15-1.07,2.23-1.96,3.29-2.73,2.19-1.57,4.76-2.4,7.45-2.4h20.79c2.38,0,4.67.57,6.62,1.65,3.95,2.19,6.74,6.1,8.28,11.64l-3.65,1.02Z"/>
    </g>
  </g>
</svg>