<?xml version="1.0" encoding="UTF-8"?>
<svg id="Layer_2" data-name="Layer 2" xmlns="http://www.w3.org/2000/svg" viewBox="0 0 98 91.7">
  <defs>
    <style>
      .cls-1 {
        fill: #214579;
      }

      .cls-2 {
        fill: #427337;
      }
    </style>
  </defs>
  <g id="Layer_1-2" data-name="Layer 1">
    <g>
      <path class="cls-2" d="m64.04,0v26.06h-2.34c-.89,0-1.75.2-2.54.57V4.88H15.04v50.22l-4.88,23.07V0h53.89Z"/>
      <polygon class="cls-1" points="6.42 15.37 6.42 20.25 4.88 20.25 4.88 91.7 0 91.7 0 15.37 6.42 15.37"/>
      <polygon class="cls-1" points="74.67 15.37 74.67 26.06 69.79 26.06 69.79 20.25 67.77 20.25 67.77 15.37 74.67 15.37"/>
      <polygon class="cls-1" points="86.73 86.82 85.7 91.7 0 91.7 0 86.82 86.73 86.82"/>
      <rect class="cls-2" x="18.92" y="9.27" width="36.43" height="4.88"/>
      <rect class="cls-2" x="18.92" y="21.47" width="36.43" height="4.88"/>
      <path class="cls-1" d="m80.36,33.56l.36-1.69c.24-1.15-.48-2.08-1.62-2.08h-17.4c-1.14,0-2.26.93-2.5,2.08l-.36,1.69H23.41l-11.28,53.26-1.03,4.88h74.59l1.03-4.88,11.27-53.26h-17.64Zm-25.01,7.38c7.34,0,13.84,3.56,17.88,9.05l-19.09,17.28-7.89-9.61-5.76,4.74,12.86,15.65,23.31-21.1c.57,1.97.87,4.04.87,6.19,0,12.25-9.93,22.19-22.19,22.19s-22.19-9.93-22.19-22.19,9.93-22.19,22.19-22.19Z"/>
      <path class="cls-2" d="m76.66,56.94l-23.31,21.1-12.86-15.65,5.76-4.74,7.89,9.61,19.09-17.28c1.53,2.07,2.7,4.42,3.43,6.95Z"/>
      <polygon class="cls-1" points="83.16 51.05 76.66 56.94 53.34 78.04 40.48 62.39 46.25 57.65 54.14 67.27 73.23 49.99 78.16 45.52 83.16 51.05"/>
    </g>
  </g>
</svg>