<?xml version="1.0" encoding="utf-8"?>
<!-- Generator: Adobe Illustrator 27.4.1, SVG Export Plug-In . SVG Version: 6.00 Build 0)  -->
<svg version="1.1" id="Layer_1" xmlns="http://www.w3.org/2000/svg" xmlns:xlink="http://www.w3.org/1999/xlink" x="0px" y="0px"
	 viewBox="0 0 300 300" style="enable-background:new 0 0 300 300;" xml:space="preserve">
<style type="text/css">
	.st0{fill:#FFFFFF;}
</style>
<g>
	<path class="st0" d="M184.2,57.8v52.9h-4.8c-1.8,0-3.6,0.4-5.2,1.2V67.7H84.7v101.9l-9.9,46.8V57.8H184.2z"/>
	<polygon class="st0" points="67.3,89 67.3,98.9 64.1,98.9 64.1,243.8 54.2,243.8 54.2,89 	"/>
	<polygon class="st0" points="205.7,89 205.7,110.7 195.8,110.7 195.8,98.9 191.7,98.9 191.7,89 	"/>
	<polygon class="st0" points="230.2,233.9 228.1,243.8 54.2,243.8 54.2,233.9 	"/>
	<rect x="92.6" y="76.6" class="st0" width="73.9" height="9.9"/>
	<rect x="92.6" y="101.3" class="st0" width="73.9" height="9.9"/>
	<path class="st0" d="M217.3,125.9l0.7-3.4c0.5-2.3-1-4.2-3.3-4.2h-35.3c-2.3,0-4.6,1.9-5.1,4.2l-0.7,3.4h-71.9L78.9,233.9l-2.1,9.9
		h151.3l2.1-9.9l22.9-108.1H217.3z M166.5,140.8c14.9,0,28.1,7.2,36.3,18.4l-38.7,35l-16-19.5l-11.7,9.6l26.1,31.8l47.3-42.8
		c1.2,4,1.8,8.2,1.8,12.6c0,24.9-20.2,45-45,45s-45-20.2-45-45S141.7,140.8,166.5,140.8z"/>
	<path class="st0" d="M209.8,173.3l-47.3,42.8l-26.1-31.8l11.7-9.6l16,19.5l38.7-35C205.9,163.4,208.3,168.2,209.8,173.3z"/>
	<g>
		<polygon class="st0" points="223,161.4 209.8,173.3 162.5,216.1 136.4,184.4 148.1,174.7 164.1,194.2 202.8,159.2 212.8,150.1 		
			"/>
	</g>
</g>
</svg>
