<?xml version="1.0" encoding="UTF-8"?>
<svg id="Layer_2" data-name="Layer 2" xmlns="http://www.w3.org/2000/svg" viewBox="0 0 608.31 108.39">
  <defs>
    <style>
      .cls-1 {
        fill: #fff;
      }
    </style>
  </defs>
  <g id="Layer_1-2" data-name="Layer 1">
    <g>
      <g>
        <g>
          <path class="cls-1" d="m58.75,80.39c.43.58.69,1.24.71,1.97.09,3.3-5.44,4.73-10.79,6.12l-1.4.37c-5.87,1.56-13.29,3.85-18.56,7.7-1.12.82-1.86,2.08-2.01,3.45-.03.21-.03.43-.02.64l-.28-.31c-1.92-2.14-.77-4.88.76-6,6.15-4.5,16.87-6.49,21.39-7.37,5.79-1.13,11.53-2.46,10.19-6.58Z"/>
          <path class="cls-1" d="m70.31,33.29c-.41,4.81-3.76,7.56-5.76,9.03-4.58,3.35-13.01,5.56-17.13,7.43-4.12,1.87-10.45,5.9-9.06,12.85.23,1.14.74,2.15,1.45,3.02-1.62-1.26-2.77-2.78-3.14-4.65-1.38-6.85,4.54-11.1,9.75-13.47,1.46-.66,3.51-1.36,5.69-2.1,4.78-1.62,10.71-3.63,14.3-6.64,1.55-1.31,2.73-2.81,3.5-4.47.16-.33.28-.67.4-1Z"/>
        </g>
        <g>
          <path class="cls-1" d="m34.28,26.65V0h20.28c4.17,0,7.55,3.38,7.55,7.55h0c0,1.51-.3,3.01-.92,4.39-2.02,4.45-8.27,12.85-26.91,14.7Z"/>
          <path class="cls-1" d="m11.09,60.36H0v-19.83c0-3.86,3.13-6.99,6.99-6.99h11.23s-7.69,5.66-8.03,14.71c-.28,7.58.91,12.11.91,12.11Z"/>
        </g>
        <path class="cls-1" d="m69.37,32.4c-.71,1.54-1.83,2.99-3.34,4.27-5.26,4.41-15.73,6.73-20.71,9-4.98,2.26-12.64,7.12-10.95,15.53,1.7,8.4,15.62,10.35,22.71,13.49,7.08,3.14,6.74,8.4,5.61,10.7-3.49,7.07-19.92,12.33-29.57,23.02l-3.73-3.78c-1.54-1.63-1.32-4.23.45-5.62,5.38-4.24,13.25-6.83,18.49-8.42,6.34-1.92,13.54-3.67,13.23-8.42-.32-4.9-7.52-6.57-14.25-7.75-6.36-1.12-20.49-3.71-20.42-15.76.08-16.07,21.82-20.41,31.85-25.09,1.39-.65,2.55-1.37,3.53-2.13,5.75-4.45,5.17-10.28,5.07-11.02.02,0,.04,0,.05,0,.39.5.75,1.01,1.06,1.53,0,0,0,0,0,0,2.11,3.47,2.42,7.19.91,10.47Z"/>
        <path class="cls-1" d="m62.52,25.25c-.05.59-.58,1.04-1.18.99-.26-.03-.49-.14-.67-.3-.28-.28-.63-.49-1.02-.56l-1.95-.26-2.96-.41.03-.28,2.62.11,2.31.09c.41,0,.79-.15,1.12-.37.19-.13.44-.2.69-.17.6.05,1.04.58,1,1.18Z"/>
        <path class="cls-1" d="m58.17,28.88c-.11.65-.73,1.08-1.38.97-.28-.05-.52-.19-.69-.39-.29-.33-.64-.61-1.07-.7l-5.3-1.21.05-.31,5.38.69c.44.06.87-.08,1.26-.3.23-.13.5-.18.78-.13.65.11,1.09.73.97,1.39Z"/>
        <path class="cls-1" d="m51.5,32.33c-.14.8-.91,1.34-1.72,1.2-.35-.06-.64-.24-.86-.48-.36-.41-.8-.75-1.33-.87l-6.57-1.51.07-.38,6.68.85c.55.07,1.08-.1,1.56-.37.28-.16.62-.22.96-.16.81.14,1.35.91,1.21,1.72Z"/>
        <path class="cls-1" d="m43.67,35.33c-.16.89-1.01,1.5-1.92,1.34-.39-.07-.72-.26-.96-.54-.4-.46-.89-.84-1.49-.97l-7.33-1.68.07-.42,7.45.95c.61.08,1.2-.11,1.74-.41.32-.18.69-.25,1.08-.18.9.16,1.5,1.01,1.35,1.92Z"/>
        <path class="cls-1" d="m34.85,39.28c-.19,1.08-1.22,1.8-2.31,1.61-.47-.08-.87-.32-1.16-.65-.48-.56-1.07-1.01-1.79-1.18l-8.84-2.03.09-.51,8.99,1.15c.74.09,1.45-.13,2.1-.49.38-.21.83-.3,1.3-.22,1.09.19,1.82,1.22,1.62,2.31Z"/>
        <path class="cls-1" d="m28.43,44.42c-.17.95-1.07,1.58-2.03,1.41-.41-.07-.76-.28-1.01-.57-.42-.49-.94-.89-1.57-1.03l-7.75-1.78.08-.45,7.88,1.01c.65.08,1.27-.12,1.84-.43.33-.19.73-.26,1.14-.19.96.17,1.59,1.07,1.42,2.03Z"/>
        <path class="cls-1" d="m23.63,51.16c-.13.76-.86,1.26-1.62,1.13-.33-.06-.61-.22-.81-.46-.34-.39-.75-.71-1.26-.82l-6.2-1.42.06-.36,6.3.81c.52.07,1.02-.09,1.47-.35.27-.15.58-.21.91-.15.76.13,1.27.86,1.14,1.62Z"/>
        <path class="cls-1" d="m23.17,58.65c-.11.63-.71,1.05-1.34.94-.27-.05-.5-.19-.67-.38-.28-.32-.62-.59-1.04-.68l-5.14-1.18.05-.3,5.23.67c.43.05.84-.08,1.22-.29.22-.12.48-.17.75-.13.63.11,1.06.71.94,1.35Z"/>
        <path class="cls-1" d="m24.23,64.48c-.06.58-.58,1-1.17.94-.25-.03-.47-.14-.64-.31-.28-.28-.61-.5-.99-.56l-4.77-.76.03-.28,4.82.29c.4.02.77-.12,1.1-.34.2-.13.43-.19.68-.16.59.06,1.01.59.95,1.17Z"/>
        <path class="cls-1" d="m27.62,70.1c-.06.55-.55.95-1.11.89-.24-.03-.45-.13-.6-.29-.26-.26-.57-.47-.94-.53l-4.52-.72.03-.26,4.57.27c.37.02.73-.12,1.04-.32.19-.12.41-.18.65-.15.56.06.96.55.9,1.11Z"/>
        <path class="cls-1" d="m33.1,74.14c-.04.42-.42.73-.85.68-.18-.02-.34-.1-.46-.22-.2-.2-.44-.36-.72-.41l-3.45-.55.02-.2,3.49.21c.29.02.55-.09.8-.24.14-.09.31-.14.49-.12.42.05.73.42.68.85Z"/>
      </g>
      <g>
        <g>
          <path class="cls-1" d="m96.9,89.8c-2.9,0-4.94-1.61-4.99-3.99h2.01c.12,1.2.97,2.4,2.98,2.4,1.82,0,2.9-1.03,2.9-2.4,0-3.89-7.8-1.41-7.8-6.77,0-2.38,1.92-3.99,4.78-3.99s4.55,1.51,4.78,3.7h-2.07c-.12-.97-1.03-2.07-2.79-2.09-1.55-.04-2.77.77-2.77,2.32,0,3.72,7.78,1.41,7.78,6.74,0,2.05-1.68,4.08-4.8,4.08Z"/>
          <path class="cls-1" d="m116.37,76.77h-5.88v4.82h5.25v1.55h-5.25v4.97h5.88v1.55h-7.76v-14.44h7.76v1.55Z"/>
          <path class="cls-1" d="m129.86,75.05c3.12,0,5.61,1.57,6.68,4.37h-2.26c-.79-1.74-2.32-2.71-4.43-2.71-3.02,0-5.28,2.19-5.28,5.73s2.26,5.71,5.28,5.71c2.11,0,3.64-.97,4.43-2.69h2.26c-1.08,2.77-3.56,4.32-6.68,4.32-4.03,0-7.2-3.02-7.2-7.34s3.17-7.39,7.2-7.39Z"/>
          <path class="cls-1" d="m150.01,89.8c-4.06,0-7.24-3.04-7.24-7.37s3.19-7.36,7.24-7.36,7.24,3.04,7.24,7.36-3.17,7.37-7.24,7.37Zm0-1.63c3.04,0,5.32-2.21,5.32-5.73s-2.28-5.73-5.32-5.73-5.32,2.19-5.32,5.73,2.28,5.73,5.32,5.73Z"/>
          <path class="cls-1" d="m175.21,75.22v14.44h-1.88l-7.57-11.48v11.48h-1.88v-14.44h1.88l7.57,11.46v-11.46h1.88Z"/>
          <path class="cls-1" d="m194.7,82.48c0,4.47-2.92,7.18-7.66,7.18h-4.49v-14.42h4.49c4.74,0,7.66,2.77,7.66,7.24Zm-7.66,5.63c3.77,0,5.73-2.11,5.73-5.63s-1.97-5.71-5.73-5.71h-2.61v11.34h2.61Z"/>
          <path class="cls-1" d="m217.52,89.8c-4.06,0-7.24-3.04-7.24-7.37s3.19-7.36,7.24-7.36,7.24,3.04,7.24,7.36-3.17,7.37-7.24,7.37Zm0-1.63c3.04,0,5.32-2.21,5.32-5.73s-2.28-5.73-5.32-5.73-5.32,2.19-5.32,5.73,2.28,5.73,5.32,5.73Z"/>
          <path class="cls-1" d="m236.03,83.64h-2.77v6.02h-1.88v-14.42h4.66c3.39,0,4.99,1.86,4.99,4.22,0,2.19-1.41,4.18-4.99,4.18Zm0-1.55c2.15,0,3.06-1.01,3.06-2.63s-.91-2.67-3.06-2.67h-2.77v5.3h2.77Z"/>
          <path class="cls-1" d="m247.49,75.24h1.88v14.42h-1.88v-14.42Z"/>
          <path class="cls-1" d="m268.06,75.22v14.44h-1.88l-7.57-11.48v11.48h-1.88v-14.44h1.88l7.57,11.46v-11.46h1.88Z"/>
          <path class="cls-1" d="m275.4,75.24h1.88v14.42h-1.88v-14.42Z"/>
          <path class="cls-1" d="m291.17,89.8c-4.06,0-7.24-3.04-7.24-7.37s3.19-7.36,7.24-7.36,7.24,3.04,7.24,7.36-3.17,7.37-7.24,7.37Zm0-1.63c3.04,0,5.32-2.21,5.32-5.73s-2.28-5.73-5.32-5.73-5.32,2.19-5.32,5.73,2.28,5.73,5.32,5.73Z"/>
          <path class="cls-1" d="m316.37,75.22v14.44h-1.88l-7.57-11.48v11.48h-1.88v-14.44h1.88l7.57,11.46v-11.46h1.88Z"/>
          <path class="cls-1" d="m333.37,75.34h2.03l5.3,11.83,5.3-11.83h2.01v14.32h-1.88v-10.68l-4.76,10.68h-1.32l-4.78-10.7v10.7h-1.88v-14.32Z"/>
          <path class="cls-1" d="m363.85,86.45h-6.29l-1.16,3.21h-1.99l5.21-14.34h2.17l5.19,14.34h-1.99l-1.16-3.21Zm-3.14-8.81l-2.61,7.28h5.21l-2.61-7.28Z"/>
          <path class="cls-1" d="m375.29,83.08v6.58h-1.88v-14.42h1.88v6.68l5.96-6.68h2.38l-6.54,7.22,6.6,7.2h-2.46l-5.94-6.58Z"/>
          <path class="cls-1" d="m397.7,76.77h-5.88v4.82h5.25v1.55h-5.25v4.97h5.88v1.55h-7.76v-14.44h7.76v1.55Z"/>
          <path class="cls-1" d="m409.26,89.8c-2.9,0-4.94-1.61-4.99-3.99h2.01c.12,1.2.97,2.4,2.98,2.4,1.82,0,2.9-1.03,2.9-2.4,0-3.89-7.8-1.41-7.8-6.77,0-2.38,1.92-3.99,4.78-3.99s4.55,1.51,4.78,3.7h-2.07c-.12-.97-1.03-2.07-2.79-2.09-1.55-.04-2.77.77-2.77,2.32,0,3.72,7.78,1.41,7.78,6.74,0,2.05-1.68,4.08-4.8,4.08Z"/>
          <path class="cls-1" d="m435.31,78.13c2.11,0,3.56,1.08,4.22,2.25v-2.07h1.9v11.34h-1.9v-2.11c-.68,1.22-2.15,2.3-4.24,2.3-3.02,0-5.36-2.38-5.36-5.9s2.34-5.81,5.38-5.81Zm.37,1.63c-2.07,0-3.83,1.51-3.83,4.18s1.76,4.24,3.83,4.24,3.85-1.55,3.85-4.22-1.78-4.2-3.85-4.2Z"/>
          <path class="cls-1" d="m470.56,82.48c0,4.47-2.92,7.18-7.66,7.18h-4.49v-14.42h4.49c4.74,0,7.66,2.77,7.66,7.24Zm-7.66,5.63c3.77,0,5.73-2.11,5.73-5.63s-1.97-5.71-5.73-5.71h-2.61v11.34h2.61Z"/>
          <path class="cls-1" d="m477.19,75.24h1.88v14.42h-1.88v-14.42Z"/>
          <path class="cls-1" d="m486.41,75.24h8.15v1.53h-6.27v4.86h5.09v1.53h-5.09v6.5h-1.88v-14.42Z"/>
          <path class="cls-1" d="m500.98,75.24h8.15v1.53h-6.27v4.86h5.09v1.53h-5.09v6.5h-1.88v-14.42Z"/>
          <path class="cls-1" d="m523.3,76.77h-5.88v4.82h5.25v1.55h-5.25v4.97h5.88v1.55h-7.76v-14.44h7.76v1.55Z"/>
          <path class="cls-1" d="m534.95,75.24c3.39,0,5.01,1.88,5.01,4.24,0,1.84-1.01,3.6-3.43,4.14l3.62,6.04h-2.26l-3.43-5.9h-2.28v5.9h-1.88v-14.42h4.66Zm0,1.55h-2.77v5.46h2.77c2.13,0,3.06-1.16,3.06-2.77s-.91-2.69-3.06-2.69Z"/>
          <path class="cls-1" d="m554.77,76.77h-5.88v4.82h5.25v1.55h-5.25v4.97h5.88v1.55h-7.76v-14.44h7.76v1.55Z"/>
          <path class="cls-1" d="m573.1,75.22v14.44h-1.88l-7.57-11.48v11.48h-1.88v-14.44h1.88l7.57,11.46v-11.46h1.88Z"/>
          <path class="cls-1" d="m586.94,75.05c3.12,0,5.61,1.57,6.68,4.37h-2.26c-.79-1.74-2.32-2.71-4.43-2.71-3.02,0-5.28,2.19-5.28,5.73s2.26,5.71,5.28,5.71c2.11,0,3.64-.97,4.43-2.69h2.26c-1.08,2.77-3.56,4.32-6.68,4.32-4.03,0-7.2-3.02-7.2-7.34s3.17-7.39,7.2-7.39Z"/>
          <path class="cls-1" d="m608.31,76.77h-5.88v4.82h5.25v1.55h-5.25v4.97h5.88v1.55h-7.76v-14.44h7.76v1.55Z"/>
        </g>
        <g>
          <path class="cls-1" d="m119.94,41.51c0,5.79-2.53,9.45-7.59,10.95l9.19,12.76h-7.54l-8.39-11.81h-7.79v11.81h-5.93V30.11h13.06c5.36,0,9.19.9,11.5,2.71,2.31,1.81,3.47,4.71,3.47,8.69Zm-7.89,4.97c1.21-1.04,1.81-2.7,1.81-5s-.62-3.87-1.86-4.72c-1.24-.85-3.45-1.28-6.63-1.28h-7.54v12.56h7.38c3.35,0,5.63-.52,6.83-1.56Z"/>
          <path class="cls-1" d="m134.71,57.24l-3.52,7.99h-6.33l15.47-35.12h6.33l15.47,35.12h-6.33l-3.52-7.99h-17.58Zm15.17-5.48l-6.38-14.47-6.38,14.47h12.76Z"/>
          <path class="cls-1" d="m194.85,34.71c3.38,3.06,5.07,7.33,5.07,12.79s-1.64,9.78-4.92,12.96c-3.28,3.18-8.31,4.77-15.07,4.77h-11.66V30.11h12.06c6.3,0,11.14,1.53,14.52,4.6Zm-.9,12.94c0-8.04-4.61-12.06-13.82-12.06h-5.93v24.06h6.58c4.25,0,7.51-1.01,9.77-3.04,2.26-2.03,3.39-5.01,3.39-8.97Z"/>
          <path class="cls-1" d="m208.82,30.11h5.93v35.12h-5.93V30.11Z"/>
          <path class="cls-1" d="m255.14,60.38c-3.55,3.47-7.94,5.2-13.16,5.2s-9.61-1.73-13.16-5.2c-3.55-3.47-5.33-7.79-5.33-12.96s1.77-9.5,5.33-12.96c3.55-3.47,7.94-5.2,13.16-5.2s9.61,1.73,13.16,5.2c3.55,3.47,5.33,7.79,5.33,12.96s-1.78,9.49-5.33,12.96Zm-4.35-21.98c-2.4-2.48-5.33-3.72-8.82-3.72s-6.42,1.24-8.82,3.72c-2.39,2.48-3.59,5.48-3.59,9.02s1.2,6.54,3.59,9.02c2.39,2.48,5.33,3.72,8.82,3.72s6.42-1.24,8.82-3.72c2.39-2.48,3.59-5.48,3.59-9.02s-1.2-6.54-3.59-9.02Z"/>
          <path class="cls-1" d="m269.2,65.23V30.11h5.93v29.49h16.03v5.63h-21.95Z"/>
          <path class="cls-1" d="m327.28,60.38c-3.55,3.47-7.94,5.2-13.16,5.2s-9.61-1.73-13.16-5.2c-3.55-3.47-5.33-7.79-5.33-12.96s1.77-9.5,5.33-12.96c3.55-3.47,7.94-5.2,13.16-5.2s9.61,1.73,13.16,5.2c3.55,3.47,5.33,7.79,5.33,12.96s-1.78,9.49-5.33,12.96Zm-4.35-21.98c-2.4-2.48-5.33-3.72-8.82-3.72s-6.42,1.24-8.82,3.72c-2.39,2.48-3.59,5.48-3.59,9.02s1.2,6.54,3.59,9.02c2.39,2.48,5.33,3.72,8.82,3.72s6.42-1.24,8.82-3.72c2.39-2.48,3.59-5.48,3.59-9.02s-1.2-6.54-3.59-9.02Z"/>
          <path class="cls-1" d="m365.66,48.15h5.93v12.01c-3.32,3.65-8.06,5.48-14.22,5.48-5.19,0-9.54-1.71-13.04-5.12-3.5-3.42-5.25-7.74-5.25-12.96s1.78-9.58,5.35-13.06c3.57-3.48,7.88-5.23,12.94-5.23s9.26,1.47,12.61,4.42l-3.16,4.52c-1.37-1.17-2.76-1.98-4.14-2.44-1.39-.45-3.01-.68-4.85-.68-3.55,0-6.53,1.15-8.94,3.44-2.41,2.29-3.62,5.31-3.62,9.04s1.17,6.73,3.52,8.99c2.34,2.26,5.18,3.39,8.52,3.39s6.12-.72,8.36-2.16v-9.65Z"/>
          <path class="cls-1" d="m393.9,65.23h-6.03v-13.87l-13.06-21.25h6.48l9.6,15.98,9.6-15.98h6.48l-13.06,21.25v13.87Z"/>
          <path class="cls-1" d="m443.73,59.85c2.04,0,3.8-.34,5.28-1.03,1.47-.69,3.01-1.78,4.62-3.29l3.82,3.92c-3.72,4.12-8.23,6.18-13.54,6.18s-9.71-1.71-13.21-5.12c-3.5-3.42-5.25-7.74-5.25-12.96s1.78-9.58,5.35-13.06c3.57-3.48,8.07-5.23,13.51-5.23s9.99,2.01,13.64,6.03l-3.77,4.12c-1.67-1.61-3.26-2.73-4.75-3.37-1.49-.64-3.24-.95-5.25-.95-3.55,0-6.53,1.15-8.94,3.44-2.41,2.29-3.62,5.23-3.62,8.79s1.2,6.55,3.59,8.94c2.39,2.39,5.23,3.59,8.52,3.59Z"/>
          <path class="cls-1" d="m465.94,65.23V30.11h5.93v15.22h17.43v-15.22h5.93v35.12h-5.93v-14.37h-17.43v14.37h-5.93Z"/>
          <path class="cls-1" d="m530.9,30.11v5.58h-18.74v9.29h16.83v5.28h-16.83v9.39h19.34v5.58h-25.27V30.11h24.67Z"/>
          <path class="cls-1" d="m556.37,59.85c2.04,0,3.8-.34,5.28-1.03,1.47-.69,3.01-1.78,4.62-3.29l3.82,3.92c-3.72,4.12-8.23,6.18-13.54,6.18s-9.71-1.71-13.21-5.12c-3.5-3.42-5.25-7.74-5.25-12.96s1.78-9.58,5.35-13.06c3.57-3.48,8.07-5.23,13.51-5.23s9.99,2.01,13.64,6.03l-3.77,4.12c-1.67-1.61-3.26-2.73-4.75-3.37-1.49-.64-3.24-.95-5.25-.95-3.55,0-6.53,1.15-8.94,3.44-2.41,2.29-3.62,5.23-3.62,8.79s1.2,6.55,3.59,8.94c2.39,2.39,5.23,3.59,8.52,3.59Z"/>
          <path class="cls-1" d="m578.57,30.11h5.93v17.13l16.08-17.13h7.54l-14.12,15.37,14.32,19.74h-7.03l-11.66-15.37-5.12,5.53v9.85h-5.93V30.11Z"/>
        </g>
      </g>
    </g>
  </g>
</svg>