<?xml version="1.0" encoding="UTF-8"?>
<svg id="Layer_2" data-name="Layer 2" xmlns="http://www.w3.org/2000/svg" viewBox="0 0 104.54 104.54">
  <defs>
    <style>
      .cls-1 {
        fill: #214579;
      }

      .cls-2 {
        fill: #fff;
      }

      .cls-3 {
        fill: #417337;
      }
    </style>
  </defs>
  <g id="Layer_1-2" data-name="Layer 1">
    <g>
      <path class="cls-1" d="m56.58,104.54c-26.44,0-47.96-21.51-47.96-47.96S30.13,8.62,56.58,8.62s47.96,21.51,47.96,47.96-21.51,47.96-47.96,47.96Zm0-90.17c-23.27,0-42.21,18.93-42.21,42.21s18.93,42.21,42.21,42.21,42.21-18.93,42.21-42.21S79.85,14.37,56.58,14.37Z"/>
      <path class="cls-1" d="m56.58,92.42c-19.76,0-35.84-16.08-35.84-35.84S36.82,20.74,56.58,20.74s35.84,16.08,35.84,35.84-16.08,35.84-35.84,35.84Z"/>
      <polygon class="cls-2" points="59.23 80.34 53.93 80.34 53.93 52.25 83.36 52.25 83.36 57.55 59.23 57.55 59.23 80.34"/>
      <circle class="cls-3" cx="23.47" cy="23.47" r="21.06"/>
      <path class="cls-2" d="m23.47,46.94C10.53,46.94,0,36.41,0,23.47S10.53,0,23.47,0s23.47,10.53,23.47,23.47-10.53,23.47-23.47,23.47Zm0-42.12C13.19,4.82,4.82,13.19,4.82,23.47s8.37,18.65,18.65,18.65,18.65-8.37,18.65-18.65S33.75,4.82,23.47,4.82Z"/>
      <g>
        <rect class="cls-2" x="20.82" y="12.78" width="5.3" height="14.15"/>
        <rect class="cls-2" x="20.82" y="29.73" width="5.3" height="4.43"/>
      </g>
    </g>
  </g>
</svg>