<?xml version="1.0" encoding="utf-8"?>
<!-- Generator: Adobe Illustrator 27.4.1, SVG Export Plug-In . SVG Version: 6.00 Build 0)  -->
<svg version="1.1" id="Layer_1" xmlns="http://www.w3.org/2000/svg" xmlns:xlink="http://www.w3.org/1999/xlink" x="0px" y="0px"
	 viewBox="0 0 300 300" style="enable-background:new 0 0 300 300;" xml:space="preserve">
<style type="text/css">
	.st0{fill:#FFFFFF;}
</style>
<g>
	<g>
		<path class="st0" d="M151,63.2c-8.6,0-16.8,1.2-24.7,3.5c2,3,3.6,6.2,4.7,9.6c6.4-1.7,13.1-2.6,19.9-2.6
			c42.5,0,77.1,34.6,77.1,77.1c0,42.5-34.6,77.1-77.1,77.1c-42.5,0-77.1-34.6-77.1-77.1c0-6.9,0.9-13.6,2.6-20
			c-3.4-1.2-6.6-2.8-9.6-4.7c-2.3,7.8-3.5,16.1-3.5,24.7c0,48.3,39.3,87.6,87.6,87.6c48.3,0,87.6-39.3,87.6-87.6
			C238.6,102.5,199.3,63.2,151,63.2z"/>
	</g>
	<path class="st0" d="M91.1,124.4c6.6-14.9,18.6-26.9,33.5-33.5C124.3,109.2,109.5,124.1,91.1,124.4z"/>
	<path class="st0" d="M151,85.4c-6.1,0-12.1,0.8-17.7,2.4c0.1,0.8,0.1,1.7,0.1,2.6c0,23.6-19.2,42.9-42.8,42.9c-0.9,0-1.7,0-2.6-0.1
		c-1.6,5.6-2.4,11.6-2.4,17.7c0,36.1,29.4,65.4,65.4,65.4c36.1,0,65.4-29.4,65.4-65.4C216.5,114.7,187.1,85.4,151,85.4z
		 M155.9,152.6v41.6h-9.7v-51.3h53.7v9.7H155.9z"/>
	<path class="st0" d="M122.7,79.1c-1.2-3.4-2.9-6.5-5-9.3c-6.2-8.2-16.1-13.5-27.1-13.5c-18.8,0-34.1,15.3-34.1,34
		c0,11.1,5.3,20.9,13.5,27.2c2.8,2.1,5.9,3.8,9.3,5c3.5,1.2,7.3,1.9,11.2,1.9c0.2,0,0.4,0,0.6,0c18.3-0.3,33.1-15.1,33.5-33.5
		c0-0.2,0-0.4,0-0.6C124.6,86.4,123.9,82.6,122.7,79.1z M95.4,109.9h-9.7v-8.1h9.7V109.9z M95.4,96.7h-9.7V70.8h9.7V96.7z"/>
</g>
</svg>
