<svg xmlns="http://www.w3.org/2000/svg" viewBox="0 0 173.76 47.937"><polygon points="80.71 23.785 80.73 9.275 83.5 9.275 83.53 21.345 89.15 21.345 89.15 23.785 80.71 23.785" fill="#677078"/><polygon points="68.25 23.785 68.28 9.275 76.1 9.275 76.1 11.715 70.99 11.715 70.97 15.245 76.02 15.245 76.02 17.555 71.02 17.555 71 21.345 76.1 21.345 76.1 23.785 68.25 23.785" fill="#677078"/><polygon points="39.77 23.785 39.76 9.175 42.69 9.175 49.1 19.825 49.13 9.275 51.75 9.275 51.75 23.855 48.68 23.855 42.38 13.295 42.41 23.785 39.77 23.785" fill="#677078"/><polygon points="32.42 23.785 32.43 9.275 35.21 9.275 35.23 23.785 32.42 23.785" fill="#677078"/><path d="M20.73,19.345h-1.1V7.085c0-2.37-2.76-3.96-3.84-4.28l-.95,1.51c.55.2,2.54.91,2.54,2.72v10.68c-2.07-1.46-3.55-3.25-3.55-5.74V2.1h13.8v9.88c0,2.49-1.48,4.28-3.54,5.74V7.035c0-1.82,1.98-2.52,2.53-2.72l-.95-1.51c-1.08.33-3.84,1.92-3.84,4.28v12.26Z" fill="#009870"/><path d="M62.4,9.285a8.4,8.4,0,0,1,1.93.83l.06.04-.04.07-1.04,2.02-.04.08-.08-.05a6.984,6.984,0,0,0-1.34-.7,3.441,3.441,0,0,0-1.15-.26,2.4,2.4,0,0,0-1.61.54,1.9,1.9,0,0,0-.62,1.44c.01,1.18,1.09,1.64,2.32,2.16,1.66.7,3.57,1.52,3.57,4.32v.03h0a3.947,3.947,0,0,1-1.34,2.97,5.147,5.147,0,0,1-3.48,1.21h-.05a8.2,8.2,0,0,1-2.5-.45,12.212,12.212,0,0,1-2.12-.96l-.07-.04.04-.07,1.18-2.01.04-.06.07.04c.11.06.23.13.35.19a6.77,6.77,0,0,0,2.8,1.07,2.664,2.664,0,0,0,1.65-.52,1.63,1.63,0,0,0,.61-1.31c0-1.18-1.14-1.69-2.42-2.26-1.68-.75-3.6-1.6-3.6-4.2a4.178,4.178,0,0,1,1.38-3.14,5.184,5.184,0,0,1,3.49-1.25,7.5,7.5,0,0,1,2.01.27" fill="#677078"/><path d="M92.42,22.865a6.984,6.984,0,0,0,3.94,1.14c3.15,0,4.65-1.99,4.65-4.13,0-4.5-6.45-3.78-6.45-6.93a2.5,2.5,0,0,1,2.65-2.51,5.123,5.123,0,0,1,3.05,1.06l.68-1.31a7.359,7.359,0,0,0-3.82-1.12c-2.55,0-4.36,1.55-4.36,3.77,0,5.02,6.33,3.53,6.33,7.17a2.57,2.57,0,0,1-2.84,2.61,7.1,7.1,0,0,1-3.48-1.29l-.79,1.29Z" fill="#009870"/><path d="M159.92,23.715v-1.5h-6.03l.04-12.86h-1.78v14.35h7.77Zm-15.63-6.26h-4.71l2.41-6.47h.04Zm-9.19,6.28h1.85l2.01-4.79h5.93l1.85,4.79h1.99l-5.81-14.37h-1.7Zm-11.22-12.88h4.54l.02,12.86h1.73l.03-12.86h4.54V9.365H123.87v1.49Zm-5.51,12.86h1.79l.01-14.35h-1.78Zm-11.42,0,.01-5.93h2.05c2.36,0,5.1-1.1,5.1-4.29,0-2.74-1.84-4.13-4.56-4.13h-4.33v14.35Zm.03-13.11h2.16c2.32,0,3.19,1.35,3.19,2.88a2.853,2.853,0,0,1-3.11,2.92h-2.28Z" fill="#009870"/><path d="M124.7,36.685h.68l.03-4.31h.01l2.92,4.33h.63l.05-5.42h-.68l-.03,4.27h-.01l-2.95-4.28h-.63Zm-4.25-4.94h.81c.88,0,1.2.51,1.2,1.09,0,.79-.69,1.02-1.35,1.02h-.67Zm-.72,4.94h.68l.03-2.31h.43c.52,0,.67.31,1.01.74l1.17,1.58h.84l-1.23-1.64c-.22-.28-.53-.77-.89-.84v-.01a1.46,1.46,0,0,0,1.36-1.5c0-.9-.69-1.42-1.72-1.42h-1.63Zm-4.06,0h2.86v-.57h-2.17l.02-1.88h2.06v-.56h-2.06l.01-1.84h2.12v-.56h-2.78Zm-3.82-4.94h.54c.86,0,1.2.33,1.2.93,0,.55-.36.93-1.25.93h-.51Zm-.02,2.37h.63c.78,0,1.25.34,1.25,1,0,.74-.44,1.05-1.12,1.05h-.79Zm-.71,2.57h1.52c1.06,0,1.75-.54,1.75-1.5a1.259,1.259,0,0,0-1.08-1.32v-.02a1.192,1.192,0,0,0,.95-1.26c0-.61-.41-1.31-1.59-1.31h-1.5Zm-3.32,0v-.57h-2.31l.05-4.84h-.67l-.05,5.41Zm-5.56-2.36h-1.77l.91-2.44h.01ZM98.79,36.7h.7l.74-1.81h2.23l.71,1.81h.75l-2.19-5.42h-.64Zm-3.87-4.86h1.71l-.05,4.85h.67l.05-4.85h1.71v-.56H94.92Zm-1.71,4.85h.67l.05-5.41h-.67Zm-4.47,0h.67l.03-2.23h.77c.89,0,1.92-.41,1.92-1.62a1.508,1.508,0,0,0-1.72-1.56H88.78Zm.71-4.94h.81c.88,0,1.21.51,1.21,1.09a1.075,1.075,0,0,1-1.17,1.1h-.86Zm-5.13,4.62a2.651,2.651,0,0,0,1.48.43,1.561,1.561,0,0,0,1.75-1.55c0-1.7-2.43-1.42-2.43-2.61a.945.945,0,0,1,1-.95,1.936,1.936,0,0,1,1.15.4l.26-.49a2.753,2.753,0,0,0-1.44-.42,1.481,1.481,0,0,0-1.64,1.42c0,1.89,2.38,1.33,2.38,2.7a.971.971,0,0,1-1.07.98,2.093,2.093,0,0,1-1.15-.4Zm-3.98,0a2.651,2.651,0,0,0,1.48.43,1.561,1.561,0,0,0,1.75-1.55c0-1.7-2.43-1.42-2.43-2.61a.945.945,0,0,1,1-.95,1.936,1.936,0,0,1,1.15.4l.26-.49a2.753,2.753,0,0,0-1.44-.42,1.481,1.481,0,0,0-1.64,1.42c0,1.89,2.38,1.33,2.38,2.7a.971.971,0,0,1-1.07.98,2.093,2.093,0,0,1-1.15-.4Zm-4.75-4.53H77.3l-.05,4.85h.67l.05-4.85h1.71v-.56h-4.1v.56Zm-1.49,2.49H72.32l.91-2.44h.02ZM70.62,36.7h.72l.74-1.81h2.23l.71,1.81h.75l-2.2-5.42h-.64Zm2.87-5.83h.72v-.8h-.72Zm-1.28,0h.72v-.8h-.72Zm-5.44.97h1.71l-.05,4.85h.67l.05-4.85h1.71v-.56h-4.1v.56Zm-1.71,4.85h.67l.05-5.41h-.67Zm-4.45-.32a2.651,2.651,0,0,0,1.48.43,1.561,1.561,0,0,0,1.75-1.55c0-1.7-2.43-1.42-2.43-2.61a.945.945,0,0,1,1-.95,1.936,1.936,0,0,1,1.15.4l.26-.49a2.753,2.753,0,0,0-1.44-.42,1.481,1.481,0,0,0-1.64,1.42c0,1.89,2.38,1.33,2.38,2.7a.971.971,0,0,1-1.07.98,2.093,2.093,0,0,1-1.15-.4Zm-4.08-4.62h.8c.88,0,1.2.51,1.2,1.09,0,.79-.69,1.02-1.35,1.02h-.67Zm-.72,4.94h.68l.03-2.31h.43c.52,0,.67.31,1.01.74l1.18,1.58h.81l-1.21-1.64c-.23-.28-.53-.77-.89-.84v-.01a1.46,1.46,0,0,0,1.36-1.5c0-.9-.7-1.42-1.72-1.42H55.86Zm-4.05,0h2.86v-.57H52.45l.02-1.88h2.06v-.56H52.47l.01-1.84H54.6v-.56H51.8Zm-3.84,0h.63l2.29-5.41h-.68L48.25,35.9l-1.75-4.62h-.77Zm-3.81,0h.67l.05-5.41h-.67Zm-5.87,0h.68l.03-4.31h.02l2.93,4.33h.63l.04-5.42h-.68l-.03,4.27h-.02l-2.93-4.28h-.62Zm-2.16-5.41-.02,3.33c-.01,1.24-.67,1.63-1.47,1.63a1.289,1.289,0,0,1-1.48-1.44c0-.5.01-1.02.01-1.52l.02-1.99h-.67l-.02,1.88c-.01.55-.02,1.05-.02,1.48a1.89,1.89,0,0,0,2.1,2.16,1.953,1.953,0,0,0,2.19-2.15l.02-3.37h-.66Z" fill="#677078"/><path d="M156.68,46.425h2.86v-.56h-2.17l.01-1.89h2.06v-.56h-2.06l.02-1.84h2.12v-.56h-2.78Zm-5.85,0h.68l.03-4.31h.02l2.91,4.31h.63l.06-5.4h-.68l-.03,4.28h-.02l-2.92-4.29h-.63Zm-4.25-4.94h.81a1.055,1.055,0,0,1,1.21,1.09c0,.79-.69,1.02-1.35,1.02h-.67Zm-.72,4.94h.68l.03-2.31H147c.52,0,.67.31,1.01.74l1.12,1.57h.88l-1.23-1.63c-.22-.28-.53-.77-.89-.84v-.02a1.46,1.46,0,0,0,1.36-1.5c0-.9-.69-1.42-1.72-1.42H145.9Zm-4.05,0h2.86v-.56H142.5l.01-1.89h2.06v-.56h-2.06l.02-1.84h2.12v-.56h-2.78Zm-3.83-4.94h.54c.86,0,1.2.33,1.2.93,0,.55-.36.93-1.25.93h-.51Zm-.02,2.38h.63c.78,0,1.25.34,1.25,1,0,.74-.44,1.05-1.13,1.05h-.79Zm-.71,2.56h1.52c1.06,0,1.75-.54,1.75-1.5a1.259,1.259,0,0,0-1.08-1.32V43.6a1.2,1.2,0,0,0,.95-1.26c0-.61-.41-1.31-1.59-1.31h-1.5Zm-6.3,0h2.86v-.56h-2.17l.02-1.89h2.06v-.56h-2.06l.02-1.84h2.12v-.56H131Zm-5.81,0h1.49c1.75,0,3.1-.94,3.1-2.78a2.592,2.592,0,0,0-2.92-2.63h-1.62Zm.72-4.89h.83a2.1,2.1,0,0,1,2.37,2.16c0,1.49-.98,2.22-2.53,2.22h-.72Zm-7.02,4.89h2.86v-.56h-2.17l.02-1.89h2.06v-.56h-2.06l.02-1.84h2.12v-.56h-2.78Zm-4.25-4.94h.8c.88,0,1.2.51,1.2,1.09,0,.79-.69,1.02-1.35,1.02h-.67Zm-.71,4.94h.68l.03-2.31h.43c.52,0,.67.31,1.01.74l1.17,1.57h.81l-1.2-1.63c-.23-.28-.53-.77-.89-.84v-.02a1.46,1.46,0,0,0,1.36-1.5c0-.9-.69-1.42-1.72-1.42h-1.63Zm-2.26,0h.67l.05-5.41h-.67Zm-2.61-2.36h-1.77l.91-2.44h.02Zm-3.46,2.36h.7l.75-1.79h2.23l.7,1.79h.72l-2.17-5.4h-.64Zm-3.87-4.84h1.71l-.05,4.85h.67l.05-4.85h1.71v-.57h-4.09Zm-1.71,4.84h.67l.05-5.41h-.67Zm-4.45-.32a2.651,2.651,0,0,0,1.48.43,1.563,1.563,0,0,0,1.75-1.56c0-1.7-2.43-1.42-2.43-2.61a.937.937,0,0,1,1-.94,1.936,1.936,0,0,1,1.15.4l.26-.49a2.753,2.753,0,0,0-1.44-.42,1.481,1.481,0,0,0-1.64,1.42c0,1.89,2.38,1.33,2.38,2.71a.971.971,0,0,1-1.07.98,2.175,2.175,0,0,1-1.15-.4Zm-4.08-4.62h.8c.88,0,1.2.51,1.2,1.09,0,.79-.69,1.02-1.35,1.02h-.67Zm-.72,4.94h.68l.03-2.31h.43c.51,0,.67.31,1.01.74l1.15,1.57h.83L93.64,44.8c-.23-.28-.53-.77-.89-.84v-.02a1.46,1.46,0,0,0,1.36-1.5c0-.9-.69-1.42-1.72-1.42H90.76Zm-4.06,0h2.86v-.56H87.35l.02-1.89h2.05v-.56H87.36l.02-1.84H89.5v-.56H86.72Zm-3.83,0h.63l2.31-5.41h-.7l-1.91,4.61-1.75-4.61h-.75Zm-3.81,0h.67l.05-5.41h-.67Zm-5.88,0h.68l.03-4.31h.02l2.9,4.31h.66l.05-5.4H76.8l-.03,4.28h-.02l-2.92-4.29H73.2Zm-2.15-5.41-.02,3.33c-.01,1.24-.67,1.63-1.47,1.63a1.293,1.293,0,0,1-1.48-1.44c0-.5.01-1.02.02-1.52v-2h-.67l-.02,1.88c-.01.55-.02,1.05-.02,1.48a1.9,1.9,0,0,0,2.1,2.17,1.954,1.954,0,0,0,2.19-2.15l.04-3.38ZM64,46.425v-.56H61.7l.04-4.85h-.67l-.05,5.41Zm-5.55-2.36H56.68l.91-2.44h.02ZM55,46.425h.7l.74-1.79h2.23l.71,1.79h.72l-2.16-5.41H57.3Zm-3.88-4.84h1.71l-.05,4.85h.67l.05-4.85h1.71v-.57h-4.1v.57Zm-1.7,4.84h.67l.04-5.41h-.67Zm-4.47,0h.67l.03-2.23h.77c.89,0,1.92-.42,1.92-1.62a1.508,1.508,0,0,0-1.72-1.56H45Zm.71-4.94h.81c.88,0,1.2.51,1.2,1.09a1.075,1.075,0,0,1-1.17,1.1h-.86Zm-7.68,2.24a2.7,2.7,0,0,0,2.87,2.81,2.771,2.771,0,0,0,2.87-2.81,2.7,2.7,0,0,0-2.87-2.81,2.759,2.759,0,0,0-2.87,2.81m.72,0a2.152,2.152,0,1,1,2.15,2.25,2.152,2.152,0,0,1-2.15-2.25m.99-3.04h.61l.53-.74.55.74h.61l-.8-1.12h-.72Zm-7.27,5.74h.68l.03-2.45h2.92l-.02,2.45h.68l.04-5.41h-.68l-.03,2.4H33.12l.02-2.4h-.68Z" fill="#677078"/></svg>