<?xml version="1.0" encoding="utf-8"?>
<!-- Generator: Adobe Illustrator 16.0.4, SVG Export Plug-In . SVG Version: 6.00 Build 0)  -->
<!DOCTYPE svg PUBLIC "-//W3C//DTD SVG 1.1//EN" "http://www.w3.org/Graphics/SVG/1.1/DTD/svg11.dtd">
<svg version="1.1" id="Ebene_1" xmlns="http://www.w3.org/2000/svg" xmlns:xlink="http://www.w3.org/1999/xlink" x="0px" y="0px"
	 width="411.023px" height="141.73px" viewBox="0 0 411.023 141.73" enable-background="new 0 0 411.023 141.73"
	 xml:space="preserve">
<polygon fill="#6D2463" points="101.858,51.547 99.044,60.24 106.423,54.886 97.293,54.886 104.672,60.24 "/>
<polygon fill="#6D2463" points="89.352,38.439 86.539,47.131 93.917,41.778 84.787,41.778 92.166,47.131 "/>
<polygon fill="#6D2463" points="70.683,32.881 67.869,41.573 75.249,36.22 66.118,36.22 73.498,41.573 "/>
<polygon fill="#6D2463" points="39.511,51.547 36.697,60.24 44.076,54.886 34.946,54.886 42.325,60.24 "/>
<polygon fill="#6D2463" points="35.621,67.991 32.807,76.676 40.186,71.325 31.055,71.325 38.435,76.676 "/>
<polygon fill="#6D2463" points="39.511,84.334 36.697,93.025 44.076,87.672 34.946,87.672 42.325,93.025 "/>
<polygon fill="#6D2463" points="52.018,97.627 49.204,106.32 56.583,100.967 47.453,100.967 54.832,106.32 "/>
<polygon fill="#6D2463" points="70.684,103 67.87,111.691 75.25,106.34 66.119,106.34 73.499,111.691 "/>
<polygon fill="#6D2463" points="105.749,67.991 102.935,76.676 110.314,71.325 101.184,71.325 108.563,76.676 "/>
<polygon fill="#6D2463" points="101.858,84.334 99.045,93.025 106.423,87.672 97.293,87.672 104.673,93.025 "/>
<path fill="#6D2463" d="M45.176,67.467h9.428v3.28h-0.408c-0.376-2.316-1.536-2.725-3.742-2.725c-0.899,0-1.193,0.065-1.193,0.767
	v3.785c1.569,0.018,2.402-0.408,2.647-2.43h0.425v5.518h-0.425c-0.196-2.043-1.029-2.533-2.647-2.533v3.953
	c0,0.721,0.311,0.916,1.373,0.916c1.601,0,3.268-0.424,4.297-2.893h0.458l-0.654,3.4h-9.559v-0.408
	c0.931-0.1,1.438-0.148,1.438-1.16v-7.903c0-1.078-0.686-1.109-1.438-1.158V67.467z"/>
<path fill="#6D2463" d="M63.51,70.748c-0.294-1.142-1.275-3.019-3.203-3.019c-0.849,0-1.748,0.489-1.748,1.551
	c0,0.881,0.31,1.239,1.683,1.925l2.402,1.192c0.556,0.275,1.797,1.223,1.797,3.004c0,1.438-1.045,3.416-4.052,3.416
	c-1.552,0-2.287-0.557-2.794-0.557c-0.343,0-0.425,0.295-0.49,0.557h-0.474v-4.037h0.474c0.327,1.65,1.274,3.498,3.349,3.498
	c1.961,0,2.043-1.619,2.043-1.83c0-1.096-0.768-1.488-1.83-1.994l-1.095-0.523c-2.794-1.34-2.794-2.742-2.794-3.492
	c0-0.995,0.506-3.217,3.611-3.217c1.307,0,2.075,0.54,2.549,0.54c0.376,0,0.458-0.246,0.539-0.556h0.491v3.542H63.51z"/>
<path fill="#6D2463" d="M83.891,70.748c-0.294-1.142-1.275-3.019-3.203-3.019c-0.849,0-1.748,0.489-1.748,1.551
	c0,0.881,0.31,1.239,1.683,1.925l2.402,1.192c0.556,0.275,1.798,1.223,1.798,3.004c0,1.438-1.047,3.416-4.053,3.416
	c-1.552,0-2.288-0.557-2.795-0.557c-0.342,0-0.424,0.295-0.49,0.557h-0.474v-4.037h0.474c0.327,1.65,1.275,3.498,3.35,3.498
	c1.961,0,2.043-1.619,2.043-1.83c0-1.096-0.768-1.488-1.83-1.994l-1.095-0.523c-2.794-1.34-2.794-2.742-2.794-3.492
	c0-0.995,0.506-3.217,3.611-3.217c1.307,0,2.075,0.54,2.549,0.54c0.376,0,0.457-0.246,0.539-0.556h0.491v3.542H83.891z"/>
<path fill="#6D2463" d="M89.789,68.708c0.082-0.506,0.115-0.686,1.014-0.686c1.307,0,1.977,0.702,1.977,2.35
	c0,2.12-0.85,2.479-2.991,2.497V68.708z M96.963,78.098c-0.196,0-0.441-0.018-0.67-0.311l-3.285-4.658
	c0.883-0.277,2.566-0.783,2.566-2.79c0-2.741-3.464-2.873-4.608-2.873h-5.262v0.409c0.932,0.065,1.438,0.099,1.438,1.502v7.216
	c0,1.322-0.326,1.371-1.438,1.504v0.408h5.523v-0.408c-1.078-0.148-1.438-0.197-1.438-1.504v-3.203h0.441l3.383,5.115h3.35V78.098z"
	/>
<polygon fill="#6D2463" points="89.354,97.627 90.521,101.225 94.306,101.225 91.238,103.467 92.415,107.049 89.355,104.836 
	86.292,107.049 87.463,103.463 84.401,101.225 88.193,101.225 "/>
<path fill="#6D2463" d="M90.892,100.742h0.231c-0.038-0.084-0.076-0.168-0.114-0.252c-0.155-0.334-0.327-0.664-0.466-1.01
	c-0.097-0.238-0.193-0.477-0.291-0.709L90.892,100.742z"/>
<path fill="#6D2463" d="M83.536,93.229c0.292,0.744,0.861,1.139,1.406,1.615c0.554,0.482,0.962,1.062,1.335,1.73
	c0.189,0.334,0.36,0.678,0.5,1.008c0.146,0.34,0.239,0.721,0.332,1.119c0.154,0.654,0.303,1.346,0.449,2.041h0.268l0.366-1.135
	c-0.074-0.348-0.154-0.691-0.251-1.02c-0.125-0.426-0.27-0.887-0.414-1.279c-0.168-0.457-0.3-0.834-0.524-1.232
	c-0.098-0.178-0.211-0.35-0.337-0.52c-0.121-0.164-0.248-0.334-0.382-0.488c-0.273-0.312-0.586-0.602-0.885-0.885
	c-0.414-0.398-0.984-0.881-1.111-1.494c-0.043-0.197-0.056-0.428,0.096-0.639c0.182-0.389,0.788-0.533,1.212-0.391
	c0.61,0.207,0.936,0.898,1.219,1.443c0.202,0.395,0.394,0.717,0.572,1.102c0.187,0.396,0.355,0.779,0.52,1.164
	c0.175,0.402,0.344,0.814,0.528,1.219c0.148,0.334,0.283,0.656,0.415,0.977l0.38-1.176c-0.103-0.281-0.204-0.564-0.319-0.848
	c-0.125-0.309-0.23-0.605-0.376-0.885c-0.153-0.295-0.344-0.553-0.493-0.848c-0.154-0.299-0.268-0.609-0.417-0.928
	c-0.134-0.287-0.34-0.676-0.497-0.945c-0.097-0.162-0.174-0.305-0.278-0.443c-0.207-0.273-0.49-0.461-0.602-0.748
	c-0.067-0.168-0.059-0.373-0.055-0.562c0.008-0.395-0.121-0.713-0.318-0.984c-0.392-0.553-0.958-0.881-1.499-1.221
	c-0.835-0.527-1.508-1.234-2.24-1.895c-0.488-0.439-1.056-0.781-1.534-1.211c-0.251-0.229-0.481-0.459-0.686-0.719
	c-0.194-0.25-0.381-0.523-0.53-0.797c-0.16-0.291-0.287-0.621-0.471-0.895c-0.191-0.279-0.387-0.498-0.631-0.746
	c-0.128-0.133-0.215-0.232-0.286-0.395c-0.066-0.152-0.084-0.336-0.119-0.541c-0.063-0.389-0.253-0.625-0.497-0.865
	c-0.325-0.318-0.704-0.664-1.022-1.008c-0.343-0.367-0.697-0.666-0.989-1.07c-0.274-0.377-0.55-0.783-0.831-1.195
	c-0.096-0.139-0.184-0.285-0.28-0.424c-0.19-0.273-0.383-0.545-0.565-0.818c-0.329-0.506-0.759-1.113-1.126-1.604
	c-0.166-0.221-0.419-0.51-0.66-0.727c-0.252-0.223-0.796-0.521-1.091-0.203c-0.119,0.131-0.219,0.348-0.253,0.523
	c-0.05,0.273,0.041,0.605,0.135,0.846c0.095,0.248,0.222,0.473,0.338,0.676c0.132,0.236,0.26,0.457,0.413,0.67
	c0.31,0.438,0.639,0.812,0.924,1.23c0.132,0.197,0.25,0.482,0.358,0.734c0.115,0.266,0.207,0.508,0.319,0.768
	c0.192,0.457,0.392,0.975,0.54,1.5c0.069,0.234,0.128,0.535,0.186,0.822c0.113,0.57,0.301,1.08,0.701,1.404
	c0.2,0.164,0.432,0.252,0.678,0.361c0.254,0.111,0.448,0.244,0.609,0.465c0.151,0.209,0.299,0.447,0.464,0.656
	c0.292,0.365,0.663,0.707,1.015,1.08c0.175,0.186,0.358,0.369,0.54,0.559c0.184,0.195,0.36,0.404,0.542,0.602
	c0.352,0.381,0.67,0.764,0.993,1.168c0.323,0.4,0.621,0.822,0.926,1.236c0.302,0.404,0.577,0.846,0.79,1.283
	c0.11,0.223,0.222,0.484,0.292,0.773c0.064,0.27,0.102,0.57,0.169,0.85c0.139,0.57,0.426,1.068,0.937,1.221
	c0.284,0.086,0.568,0.051,0.759,0.229C83.37,92.689,83.415,92.977,83.536,93.229 M85.37,90.455c0.151,0.064,0.212,0.291,0.126,0.436
	c-0.199,0.232-0.581,0.266-0.916,0.418c-0.203,0.092-0.439,0.252-0.626,0.283c-0.203,0.031-0.4-0.047-0.404-0.277
	c-0.002-0.166,0.152-0.342,0.261-0.443c0.263-0.234,0.582-0.33,0.941-0.396C84.961,90.436,85.185,90.393,85.37,90.455
	 M75.012,81.232c-0.184-0.158-0.296-0.428-0.37-0.645c-0.084-0.242-0.147-0.52-0.203-0.727c-0.343-1.266-0.826-2.441-1.48-3.439
	c-0.117-0.182-0.287-0.449-0.314-0.668c-0.003-0.02-0.003-0.074,0.009-0.096c0.001-0.008,0.007-0.004,0.008-0.002
	c0.042-0.029,0.134,0.041,0.185,0.086c0.379,0.34,0.586,0.717,0.858,1.135c0.145,0.227,0.301,0.449,0.443,0.682
	c0.148,0.24,0.292,0.438,0.463,0.643c0.176,0.213,0.368,0.393,0.55,0.6c0.36,0.412,0.704,0.793,1.075,1.189
	c0.182,0.191,0.562,0.494,0.474,0.848c-0.023,0.084-0.098,0.197-0.152,0.258c-0.175,0.189-0.502,0.291-0.78,0.318
	C75.476,81.447,75.205,81.398,75.012,81.232 M76.024,82.256c-0.109-0.076-0.135-0.26-0.065-0.387
	c0.132-0.234,0.452-0.375,0.702-0.457c0.241-0.076,0.558-0.068,0.548,0.215c-0.01,0.277-0.468,0.471-0.696,0.578
	C76.36,82.279,76.176,82.359,76.024,82.256 M82.687,91.137c-0.062-0.014-0.155-0.068-0.202-0.119
	c-0.12-0.127-0.177-0.389-0.232-0.631c-0.144-0.643-0.391-1.25-0.714-1.777c-0.206-0.338-0.433-0.697-0.67-1.041
	c-0.24-0.35-0.473-0.637-0.754-0.979c-0.329-0.4-0.697-0.75-1.036-1.145c-0.201-0.229-0.403-0.51-0.581-0.717
	c-0.241-0.281-0.53-0.594-0.846-0.896c-0.151-0.146-0.303-0.285-0.442-0.43c-0.144-0.146-0.348-0.355-0.383-0.549
	c-0.047-0.268,0.116-0.451,0.315-0.506c0.548-0.158,0.894,0.355,1.091,0.699c0.238,0.408,0.462,0.857,0.682,1.191
	c0.248,0.377,0.53,0.707,0.88,1.01c0.088,0.074,0.166,0.162,0.254,0.238c0.256,0.215,0.511,0.457,0.774,0.674
	c0.355,0.293,0.72,0.566,1.057,0.869c0.169,0.156,0.345,0.307,0.52,0.451c0.172,0.148,0.345,0.297,0.522,0.439
	c0.173,0.141,0.349,0.287,0.531,0.426c0.363,0.268,0.743,0.506,1.101,0.789c0.089,0.068,0.174,0.15,0.251,0.225
	c0.064,0.066,0.136,0.162,0.161,0.248c0.03,0.107,0,0.164-0.032,0.254c-0.157,0.188-0.355,0.217-0.545,0.268
	c-0.194,0.057-0.386,0.117-0.595,0.24c-0.172,0.102-0.321,0.236-0.465,0.383C83.169,90.908,82.965,91.191,82.687,91.137"/>
<path fill="#6D2463" d="M93.039,105.787c-0.238-0.697-0.55-1.365-0.818-2.074c-0.029-0.078-0.056-0.158-0.084-0.238l-0.301,0.221
	l1.549,4.715l-0.704-0.51c-0.018,0.117-0.051,0.225-0.1,0.32c-0.093,0.184-0.257,0.322-0.433,0.459
	c-0.154,0.117-0.327,0.264-0.471,0.41c-0.144,0.148-0.26,0.334-0.373,0.496c-0.251,0.367-0.478,0.652-0.921,0.805
	c-0.233,0.08-0.469,0.074-0.657-0.021c-0.561-0.285-0.533-1.197-0.54-1.908c-0.002-0.121,0-0.244-0.002-0.365
	c-0.009-0.361-0.054-0.75-0.09-1.084c-0.027-0.236-0.039-0.477-0.067-0.719c-0.02-0.172-0.035-0.348-0.048-0.523l-0.773,0.559
	c0.025,0.305,0.046,0.615,0.053,0.92c0.003,0.209-0.006,0.418,0.005,0.625c0.013,0.215,0.034,0.426,0.051,0.639
	c0.037,0.404,0.072,0.816,0.128,1.258c0.026,0.207,0.051,0.422,0.104,0.617c0.054,0.195,0.134,0.357,0.245,0.492
	c0.471,0.564,1.364,0.627,2.108,0.311c0.335-0.143,0.637-0.312,0.881-0.572c0.12-0.129,0.212-0.293,0.31-0.443
	c0.099-0.148,0.199-0.301,0.332-0.43c0.283-0.273,0.594-0.438,0.84-0.689c0.252-0.26,0.385-0.6,0.393-1.02
	c0.009-0.457-0.119-0.779-0.249-1.129C93.263,106.523,93.162,106.141,93.039,105.787"/>
<polygon fill="#6D2463" points="52.02,38.439 53.188,42.037 56.972,42.037 53.905,44.279 55.081,47.859 52.022,45.648 
	48.959,47.859 50.13,44.275 47.068,42.037 50.86,42.037 "/>
<path fill="#6D2463" d="M49.22,44.968c0.047,0.025,0.095,0.052,0.142,0.076l0.185-0.565l-1.288-0.941
	c-0.282-0.121-0.568-0.243-0.842-0.385c-0.444-0.229-0.889-0.47-1.331-0.701c-0.222-0.114-0.44-0.235-0.676-0.34
	c-0.46-0.208-0.934-0.352-1.38-0.619c-0.219-0.131-0.428-0.309-0.521-0.514c-0.052-0.119-0.075-0.321-0.037-0.471
	c0.069-0.252,0.282-0.491,0.491-0.641c0.229-0.164,0.499-0.252,0.784-0.302c0.329-0.056,0.608-0.118,0.848-0.24
	c0.339-0.17,0.618-0.445,1.054-0.433c0.321,0.009,0.603,0.19,0.839,0.361c0.334,0.241,0.642,0.533,0.928,0.804
	c0.304,0.288,0.609,0.563,0.919,0.823c0.259,0.216,0.522,0.424,0.768,0.652h0.405l0.165-0.511c-0.029-0.025-0.058-0.05-0.087-0.076
	c-0.518-0.473-0.993-0.994-1.532-1.448c-0.131-0.111-0.264-0.227-0.396-0.341c-0.135-0.113-0.275-0.216-0.405-0.333
	c-0.258-0.231-0.506-0.487-0.811-0.658c-0.392-0.234-1.07-0.283-1.564-0.092c-0.209,0.067-0.398,0.174-0.59,0.258
	c-0.585,0.264-1.269,0.362-1.846,0.774c-0.321,0.228-0.615,0.57-0.789,0.958c-0.173,0.382-0.268,0.871-0.031,1.33
	c0.192,0.374,0.595,0.579,0.949,0.785c0.371,0.211,0.754,0.397,1.117,0.58c0.385,0.193,0.767,0.355,1.147,0.529
	c0.768,0.347,1.515,0.732,2.267,1.102C48.479,44.572,48.847,44.773,49.22,44.968"/>
<path fill="#6D2463" d="M70.963,70.365c-0.092-0.155-0.184-0.316-0.279-0.458c-0.199-0.294-0.395-0.631-0.579-0.908
	c-0.102-0.149-0.212-0.298-0.314-0.449c-0.308-0.444-0.61-0.889-0.898-1.342c-0.194-0.301-0.405-0.589-0.598-0.897
	c-0.359-0.572-0.602-1.301-0.906-1.947c-0.215-0.474-0.31-1.024-0.709-1.404c-0.118-0.111-0.275-0.177-0.437-0.274
	c-0.149-0.089-0.293-0.206-0.37-0.343c-0.077-0.133-0.142-0.313-0.217-0.481c-0.147-0.324-0.355-0.628-0.568-0.882
	c-0.219-0.266-0.459-0.522-0.664-0.805c-0.208-0.283-0.379-0.59-0.523-0.9c-0.31-0.672-0.463-1.418-0.662-2.095
	c-0.105-0.365-0.235-0.696-0.372-1.032c-0.292-0.713-0.514-1.399-0.647-2.127c-0.144-0.793-0.317-1.547-0.756-2.022
	c-0.118-0.128-0.259-0.245-0.409-0.325c-0.143-0.076-0.309-0.126-0.475-0.209c-0.166-0.081-0.289-0.188-0.382-0.353
	c-0.086-0.151-0.146-0.321-0.228-0.477c-0.155-0.295-0.391-0.603-0.608-0.853c-0.231-0.262-0.463-0.527-0.702-0.779
	c-0.126-0.131-0.253-0.245-0.366-0.377c-0.107-0.125-0.212-0.246-0.312-0.379c-0.197-0.265-0.403-0.531-0.632-0.762
	c-0.252-0.251-0.503-0.487-0.769-0.732c-0.259-0.239-0.524-0.469-0.776-0.709c-0.25-0.244-0.479-0.507-0.722-0.753
	c-0.154-0.156-0.305-0.313-0.456-0.472l0.563,1.712c0.098,0.098,0.197,0.195,0.294,0.294c0.559,0.571,1.15,1.151,1.684,1.709
	c0.267,0.279,0.563,0.59,0.829,0.915c0.265,0.322,0.522,0.622,0.737,0.883c0.24,0.294,0.52,0.687,0.534,1.167
	c0.011,0.422-0.249,0.845-0.619,1.014c-0.449,0.203-0.876-0.061-1.129-0.378c-0.385-0.478-0.565-1.083-0.807-1.677
	c-0.194-0.473-0.41-0.924-0.674-1.343l0.028,0.086l-4.029-2.911l-0.276,0.199c0.223,0.151,0.445,0.303,0.67,0.452
	c0.702,0.465,1.408,0.929,1.997,1.538c0.151,0.155,0.283,0.331,0.427,0.497c0.396,0.473,0.756,0.959,1.05,1.635
	c0.172,0.4,0.283,0.812,0.455,1.243c0.154,0.391,0.348,0.715,0.665,1.044c0.149,0.156,0.343,0.275,0.465,0.443
	c0.228,0.309,0.02,0.668,0.001,0.981c-0.039,0.609,0.411,1.002,0.798,1.284c0.169,0.122,0.351,0.226,0.526,0.344
	c0.696,0.469,1.264,1.198,1.676,1.875c0.409,0.672,0.893,1.446,1.323,2.303c0.378,0.759,0.759,1.592,1.112,2.396
	c0.178,0.406,0.34,0.776,0.587,1.135c0.126,0.176,0.256,0.345,0.333,0.52c0.089,0.201,0.092,0.438,0.091,0.682
	c0.001,0.269,0.028,0.504,0.105,0.701c0.223,0.58,0.781,0.961,1.316,1.297c0.593,0.38,1.13,0.905,1.653,1.43
	c0.267,0.266,0.533,0.511,0.776,0.767c0.238,0.247,0.456,0.573,0.621,0.876c0.314,0.57,0.723,1.195,1.207,1.743
	c0.22,0.249,0.527,0.529,0.838,0.681c0.132,0.062,0.416,0.1,0.578,0.053c0.157-0.045,0.284-0.27,0.341-0.404
	C71.603,71.453,71.223,70.795,70.963,70.365 M58.685,53.236c0.166-0.174,0.373-0.283,0.556-0.474
	c0.095-0.098,0.173-0.208,0.244-0.311c0.102-0.145,0.207-0.362,0.389-0.412c0.173-0.044,0.32,0.045,0.32,0.229
	c-0.001,0.188-0.129,0.354-0.23,0.505c-0.056,0.081-0.106,0.153-0.162,0.224c-0.151,0.2-0.305,0.361-0.553,0.483
	c-0.142,0.067-0.373,0.146-0.517,0.069C58.621,53.49,58.61,53.341,58.685,53.236 M64.276,63.071
	c-0.106-0.031-0.218-0.128-0.27-0.197c-0.114-0.145-0.204-0.361-0.274-0.538c-0.225-0.557-0.481-1.188-0.753-1.681
	c-0.169-0.31-0.39-0.695-0.574-1.08c-0.186-0.393-0.343-0.747-0.554-1.136c-0.389-0.709-0.842-1.41-1.328-2.028
	c-0.348-0.44-0.792-0.882-1.289-1.212c-0.157-0.107-0.356-0.227-0.468-0.372c-0.046-0.057-0.125-0.208-0.103-0.34
	c0.01-0.064,0.064-0.151,0.088-0.179c0.13-0.15,0.325-0.2,0.509-0.274c0.201-0.081,0.37-0.172,0.532-0.292
	c0.147-0.113,0.278-0.257,0.399-0.415c0.121-0.153,0.248-0.365,0.438-0.437c0.154-0.059,0.33,0.044,0.412,0.176
	c0.104,0.165,0.161,0.412,0.215,0.608c0.107,0.402,0.186,0.832,0.303,1.234c0.182,0.613,0.374,1.164,0.603,1.836
	c0.146,0.429,0.261,0.816,0.382,1.212c0.265,0.853,0.566,1.727,0.917,2.318c0.283,0.48,0.758,0.973,1.099,1.445
	c0.131,0.181,0.262,0.36,0.308,0.591C64.949,62.707,64.675,63.189,64.276,63.071 M64.577,64.103
	c-0.103-0.071-0.113-0.232-0.059-0.338c0.081-0.166,0.249-0.253,0.409-0.409c0.159-0.16,0.268-0.34,0.451-0.386
	c0.072-0.019,0.136-0.006,0.166,0.021c0.125,0.103,0.037,0.286,0.001,0.382c-0.147,0.194-0.323,0.435-0.533,0.61
	C64.925,64.052,64.72,64.198,64.577,64.103 M69.122,69.493c-0.35-0.282-0.614-0.701-0.923-1.091
	c-0.292-0.365-0.662-0.749-1.081-1.124c-0.199-0.178-0.4-0.355-0.597-0.536c-0.394-0.362-0.835-0.62-1.24-1.001
	c-0.206-0.195-0.361-0.45-0.356-0.726c0.004-0.233,0.138-0.457,0.266-0.636c0.209-0.292,0.629-0.666,1.012-0.4
	c0.2,0.204,0.299,0.474,0.414,0.726c0.227,0.501,0.462,0.98,0.687,1.466c0.116,0.244,0.243,0.493,0.374,0.731
	c0.247,0.448,0.619,0.876,0.884,1.322c0.207,0.35,0.454,0.663,0.609,0.987c0.052,0.11,0.132,0.229,0.12,0.364
	C69.225,69.584,69.168,69.529,69.122,69.493"/>
<polygon fill="#6D2463" points="140.512,65.926 162.196,65.926 162.196,60.669 147.302,60.669 147.302,52.127 160.794,52.127 
	160.794,46.958 147.302,46.958 147.302,39.425 161.714,39.425 161.714,34.256 140.512,34.256 "/>
<path fill="#6D2463" d="M165.568,55.807c0.044,3.066,0.131,10.864,12.266,10.864c8.762,0,13.492-4.6,13.492-10.295
	c0-6.176-5.388-7.666-10.864-8.979c-4.556-1.14-6.878-1.664-6.878-4.6c0-2.585,2.06-4.293,5.213-4.293
	c4.688,0,5.038,3.723,5.126,4.818h6.527c0-1.051,0-3.592-1.796-5.87c-2.366-2.978-6.265-3.723-9.55-3.723
	c-8.806,0-12.528,4.6-12.528,9.812c0,5.477,4.117,7.71,11.652,9.594c4.029,0.964,6.001,1.445,6.001,4.249
	c0,2.672-2.321,4.424-6.001,4.424c-5.826,0-5.739-4.512-5.739-6.001H165.568z"/>
<path fill="#6D2463" d="M194.786,55.807c0.044,3.066,0.131,10.864,12.266,10.864c8.762,0,13.492-4.6,13.492-10.295
	c0-6.176-5.388-7.666-10.864-8.979c-4.556-1.14-6.878-1.664-6.878-4.6c0-2.585,2.06-4.293,5.213-4.293
	c4.688,0,5.038,3.723,5.126,4.818h6.527c0-1.051,0-3.592-1.796-5.87c-2.366-2.978-6.265-3.723-9.55-3.723
	c-8.805,0-12.528,4.6-12.528,9.812c0,5.477,4.117,7.71,11.652,9.594c4.03,0.964,6.001,1.445,6.001,4.249
	c0,2.672-2.321,4.424-6.001,4.424c-5.826,0-5.739-4.512-5.739-6.001H194.786z"/>
<path fill="#6D2463" d="M242.49,43.542c0,2.233-1.271,3.329-1.752,3.679c-1.096,0.877-2.672,0.877-3.461,0.877h-5.476V39.25h4.555
	c2.147,0,3.417,0,4.47,0.745C241.438,40.388,242.49,41.396,242.49,43.542 M242.972,50.245c1.533-0.438,6.615-1.841,6.615-7.753
	c0-2.059-0.789-4.381-2.76-6.089c-2.541-2.191-6.089-2.191-9.595-2.147h-12.134v31.672h6.921V53.135h5.958
	c1.14,0,2.805,0,3.417,1.796c0.438,1.228,1.402,9.243,1.708,10.996h7.491c-0.35-0.526-0.613-0.877-0.963-2.278
	c-0.22-0.877-0.482-2.409-0.964-6.133C248.097,53.398,247.747,50.682,242.972,50.245"/>
<path fill="#878787" d="M273.677,90.98l6.566,12.244v7.133h4.117v-7.078l6.566-12.299h-4.279l-4.09,8.854l-4.01-8.854H273.677z
	 M272.357,96.875c-0.026-1.051-0.107-2.584-1.399-4.064c-1.534-1.75-4.117-2.449-6.62-2.449c-5.895,0-10.2,3.688-10.2,10.578
	c0,2.045,0.404,5.139,2.584,7.266c1.534,1.506,3.821,2.584,8.262,2.584c3.902,0,5.895-0.674,7.105-1.078v-9.715h-7.939v3.229h3.768
	v4.092c-0.457,0.135-1.157,0.377-3.175,0.377c-2.315,0-3.606-0.592-4.575-1.668c-1.427-1.535-1.615-3.902-1.615-5.223
	c0-2.986,0.942-7.4,5.678-7.4c0.915,0,2.449,0.217,3.257,1.508c0.484,0.754,0.512,1.453,0.538,1.965H272.357z M238.476,100.777
	c0-2.207,0.323-4.307,1.426-5.652c0.78-0.996,2.019-1.641,3.579-1.641c1.992,0,3.634,1.049,4.441,3.443
	c0.403,1.186,0.484,2.531,0.484,3.473c0,3.094-0.674,4.602-1.319,5.57c-0.78,1.211-1.938,1.803-3.633,1.803
	c-1.938,0-2.934-0.754-3.525-1.561C238.771,104.705,238.476,102.633,238.476,100.777 M234.116,100.912
	c0,1.775,0.269,5.004,2.395,7.266c1.776,1.857,4.333,2.664,6.889,2.664c1.615,0,4.765-0.35,6.917-2.771
	c1.589-1.777,2.449-4.791,2.449-7.617c0-1.91-0.404-4.951-2.476-7.32c-1.911-2.152-4.764-2.637-6.836-2.637
	C236.457,90.496,234.116,95.744,234.116,100.912 M222.032,110.357h12.595v-3.311h-8.343V90.926h-4.252V110.357z M205.535,100.777
	c0-2.207,0.322-4.307,1.426-5.652c0.781-0.996,2.019-1.641,3.58-1.641c1.991,0,3.633,1.049,4.439,3.443
	c0.404,1.186,0.484,2.531,0.484,3.473c0,3.094-0.672,4.602-1.318,5.57c-0.78,1.211-1.938,1.803-3.633,1.803
	c-1.938,0-2.934-0.754-3.525-1.561C205.831,104.705,205.535,102.633,205.535,100.777 M201.175,100.912
	c0,1.775,0.269,5.004,2.395,7.266c1.776,1.857,4.333,2.664,6.891,2.664c1.615,0,4.763-0.35,6.916-2.771
	c1.588-1.777,2.449-4.791,2.449-7.617c0-1.91-0.403-4.951-2.477-7.32c-1.91-2.152-4.763-2.637-6.835-2.637
	C203.516,90.496,201.175,95.744,201.175,100.912 M194.984,110.357h4.172V90.846h-4.172V110.357z M180.722,94.102
	c2.396-0.107,3.499,0.027,4.36,0.27c2.61,0.727,3.552,3.258,3.552,6.002c0,0.943-0.107,3.848-1.749,5.49
	c-1.211,1.211-2.745,1.346-4.521,1.346c-0.484,0-1.185-0.027-1.643-0.055V94.102z M176.497,110.357h6.055
	c1.965,0,2.772-0.08,3.499-0.215c3.688-0.674,6.889-3.795,6.889-9.77c0-2.771-0.86-5.84-3.31-7.643
	c-2.341-1.723-5.624-1.75-6.701-1.75l-6.432-0.027V110.357z M162.772,103.01l2.879-8.289l2.691,8.289H162.772z M163.284,90.9
	l-7.024,19.457h3.983l1.453-4.197h7.697l1.399,4.197h4.198L168.235,90.9H163.284z M144.715,93.969h2.798c1.319,0,2.1,0,2.745,0.457
	c0.377,0.242,1.023,0.861,1.023,2.18c0,1.371-0.78,2.045-1.076,2.262c-0.673,0.537-1.642,0.537-2.126,0.537h-3.364V93.969z
	 M140.597,110.357h4.252V102.5h3.66c0.7,0,1.723,0,2.099,1.102c0.269,0.756,0.861,5.68,1.05,6.756h4.602
	c-0.215-0.322-0.377-0.537-0.592-1.398c-0.135-0.539-0.296-1.482-0.592-3.768c-0.35-2.531-0.565-4.199-3.499-4.469
	c0.942-0.27,4.064-1.131,4.064-4.764c0-1.264-0.485-2.691-1.696-3.74c-1.56-1.346-3.74-1.346-5.893-1.318h-7.455V110.357z"/>
<path fill="#878787" d="M376.803,88.229h12.595v-3.311h-8.343V68.797h-4.252V88.229z M363.509,80.881l2.879-8.289l2.692,8.289
	H363.509z M364.02,68.771l-7.023,19.458h3.982l1.453-4.199h7.697l1.4,4.199h4.197l-6.755-19.458H364.02z M350.482,88.229h4.198V72
	h5.787v-3.229h-15.771V72h5.785V88.229z M331.214,88.229h13.322v-3.23h-9.15v-5.246h8.289v-3.178h-8.289v-4.628h8.854v-3.175
	h-13.026V88.229z M317.462,88.229h12.595v-3.311h-8.343V68.797h-4.252V88.229z M302.499,88.229h13.321v-3.23h-9.149v-5.246h8.289
	v-3.178h-8.289v-4.628h8.854v-3.175h-13.025V88.229z M285.706,88.229h4.172v-9.904l6.808,9.904h5.195L294.13,77.49l7.132-8.719
	h-4.872l-6.512,8.422v-8.37h-4.172V88.229z M268.241,82.012c0.025,1.883,0.08,6.674,7.534,6.674c5.383,0,8.289-2.826,8.289-6.324
	c0-3.795-3.31-4.709-6.674-5.518c-2.799-0.699-4.226-1.021-4.226-2.826c0-1.586,1.265-2.636,3.203-2.636
	c2.88,0,3.095,2.289,3.148,2.96h4.01c0-0.646,0-2.207-1.104-3.607c-1.453-1.83-3.848-2.287-5.867-2.287
	c-5.409,0-7.696,2.825-7.696,6.029c0,3.363,2.529,4.736,7.158,5.893c2.477,0.594,3.688,0.889,3.688,2.611
	c0,1.641-1.426,2.717-3.688,2.717c-3.579,0-3.524-2.771-3.524-3.686H268.241z M253.197,78.646c0-2.207,0.322-4.305,1.426-5.65
	c0.781-0.997,2.018-1.642,3.579-1.642c1.991,0,3.634,1.05,4.44,3.445c0.404,1.184,0.484,2.529,0.484,3.473
	c0,3.094-0.673,4.6-1.318,5.57c-0.781,1.211-1.938,1.803-3.634,1.803c-1.937,0-2.933-0.754-3.525-1.561
	C253.493,82.576,253.197,80.504,253.197,78.646 M248.837,78.781c0,1.777,0.269,5.006,2.395,7.268
	c1.776,1.855,4.333,2.664,6.891,2.664c1.613,0,4.763-0.35,6.916-2.773c1.588-1.775,2.448-4.789,2.448-7.615
	c0-1.91-0.403-4.951-2.476-7.32c-1.911-2.153-4.763-2.638-6.836-2.638C251.178,68.367,248.837,73.615,248.837,78.781
	 M237.291,88.229h12.595v-3.311h-8.343V68.797h-4.252V88.229z M217.78,68.824v11.625c0,1.805,0.054,3.312,0.995,4.791
	c1.83,2.934,5.383,3.365,7.32,3.365c3.929,0,8.531-1.857,8.531-7.643V68.824h-4.064v11.625c0,1.965-0.215,2.721-0.619,3.312
	c-1.075,1.668-3.095,1.693-3.767,1.693c-4.063,0-4.226-2.664-4.226-4.789V68.824H217.78z M216.3,75.121
	c0-3.875-2.987-6.458-7.239-6.458c-5.463,0-8.908,4.091-8.908,10.253c0,4.818,2.181,9.77,8.882,9.77c1.775,0,3.956-0.404,5.678-2.18
	c1.561-1.615,1.669-3.418,1.75-4.574h-4.387c-0.081,2.582-1.749,3.686-3.499,3.686c-4.063,0-4.063-5.516-4.063-6.674
	c0-4.01,1.291-7.24,4.386-7.24c2.826,0,3.068,2.746,3.149,3.417H216.3z M183.575,82.012c0.026,1.883,0.081,6.674,7.535,6.674
	c5.383,0,8.289-2.826,8.289-6.324c0-3.795-3.311-4.709-6.675-5.518c-2.799-0.699-4.225-1.021-4.225-2.826
	c0-1.586,1.265-2.636,3.203-2.636c2.879,0,3.095,2.289,3.147,2.96h4.01c0-0.646,0-2.207-1.103-3.607
	c-1.453-1.83-3.849-2.287-5.867-2.287c-5.409,0-7.697,2.825-7.697,6.029c0,3.363,2.53,4.736,7.159,5.893
	c2.477,0.594,3.688,0.889,3.688,2.611c0,1.641-1.427,2.717-3.688,2.717c-3.58,0-3.525-2.771-3.525-3.686H183.575z M164.979,68.824
	v11.625c0,1.805,0.055,3.312,0.996,4.791c1.83,2.934,5.382,3.365,7.32,3.365c3.929,0,8.531-1.857,8.531-7.643V68.824h-4.064v11.625
	c0,1.965-0.215,2.721-0.619,3.312c-1.076,1.668-3.095,1.693-3.767,1.693c-4.064,0-4.227-2.664-4.227-4.789V68.824H164.979z
	 M140.597,88.229h3.902V71.542l5.194,16.687h3.445l5.302-16.687v16.687h4.144V68.771h-6.62l-4.441,14.155l-4.117-14.155h-6.809
	V88.229z"/>
<path fill="#949494" d="M379.9,65.927h1.171v-3.77h3.55v-0.963h-3.55v-2.587h3.769v-0.975H379.9V65.927z M372.032,61.768
	c0-1.7,0.54-3.39,2.644-3.39c1.896,0,2.517,1.425,2.517,3.31c0,0.563-0.069,1.873-0.747,2.701c-0.482,0.574-1.161,0.758-1.839,0.758
	c-0.655,0-1.368-0.172-1.839-0.758C372.193,63.676,372.032,62.676,372.032,61.768 M370.827,61.837c0,2.275,0.918,4.285,3.745,4.285
	c2.953,0,3.836-2.217,3.836-4.424c0-2.814-1.445-4.283-3.745-4.283c-0.77,0-1.906,0.183-2.769,1.112
	C370.987,59.504,370.827,60.895,370.827,61.837 M363.071,65.927h1.159v-3.205l3.24-5.089h-1.287l-2.481,4.065l-2.445-4.065h-1.426
	l3.24,5.031V65.927z M356.532,65.927v-7.319h2.781v-0.975h-6.697v0.975h2.78v7.319H356.532z M346.39,65.927h5.296v-1.01h-4.148
	v-2.76h3.86v-0.963h-3.86v-2.587h4.057v-0.975h-5.204V65.927z M343.541,65.927h1.148v-8.294h-1.148V65.927z M342.314,59.873
	c-0.15-1.885-1.804-2.354-2.976-2.354c-2.952,0-3.629,2.607-3.629,4.354c0,1.608,0.562,4.181,3.479,4.181
	c1.424,0,2.929-0.676,3.102-2.308h-1.264c-0.035,0.194-0.104,0.552-0.401,0.873c-0.356,0.367-0.84,0.494-1.346,0.494
	c-1.895,0-2.343-1.689-2.343-3.253c0-1.379,0.356-3.424,2.355-3.424c1.597,0,1.745,1.149,1.792,1.437H342.314z M328.234,61.768
	c0-1.7,0.54-3.39,2.645-3.39c1.896,0,2.517,1.425,2.517,3.31c0,0.563-0.069,1.873-0.748,2.701c-0.482,0.574-1.16,0.758-1.838,0.758
	c-0.656,0-1.368-0.172-1.839-0.758C328.396,63.676,328.234,62.676,328.234,61.768 M327.029,61.837c0,2.275,0.918,4.285,3.745,4.285
	c2.953,0,3.837-2.217,3.837-4.424c0-2.814-1.446-4.283-3.745-4.283c-0.77,0-1.907,0.183-2.77,1.112
	C327.19,59.504,327.029,60.895,327.029,61.837 M319.632,63.504c0,0.401,0.012,1.068,0.481,1.678c0.654,0.837,1.941,0.94,2.574,0.94
	c2.126,0,3.273-1.113,3.273-2.584c0-0.346-0.058-1.149-0.826-1.655c-0.482-0.321-0.7-0.367-2.678-0.873
	c-1.012-0.241-1.494-0.494-1.494-1.23c0-0.826,0.689-1.344,1.839-1.344c0.816,0,1.689,0.23,1.748,1.264h1.192
	c-0.022-0.345-0.046-0.907-0.505-1.412c-0.665-0.724-1.78-0.815-2.332-0.815c-1.562,0-3.159,0.734-3.159,2.423
	c0,0.552,0.185,1.172,0.861,1.632c0.424,0.287,0.988,0.426,2.252,0.736c1.161,0.287,1.908,0.471,1.908,1.402
	c0,0.413-0.218,1.481-1.943,1.481c-1.908,0-1.976-1.068-1.999-1.643H319.632z M308.406,65.927h1.044v-7.043l4.219,7.043h1.469
	v-8.294h-1.057v6.858l-4.079-6.858h-1.596V65.927z M303.34,58.769l1.527,4.069h-3.136L303.34,58.769z M299.284,65.927h1.184
	l0.896-2.16h3.85l0.896,2.16h1.252l-3.354-8.294h-1.229L299.284,65.927z M293.081,65.927h5.296v-1.01h-4.148v-2.76h3.861v-0.963
	h-3.861v-2.587h4.056v-0.975h-5.203V65.927z M287.525,58.562h1.61c0.597,0,1.678,0,1.678,1.299c0,1.357-1.161,1.414-1.92,1.414
	h-1.368V58.562z M286.379,65.927h1.146v-3.688h1.345c1.494,0,2.069-0.275,2.506-0.712c0.447-0.446,0.653-0.987,0.653-1.62
	c0-0.62-0.194-1.184-0.607-1.608c-0.562-0.608-1.252-0.665-2.264-0.665h-2.779V65.927z M278.55,61.768c0-1.7,0.541-3.39,2.644-3.39
	c1.896,0,2.518,1.425,2.518,3.31c0,0.563-0.069,1.873-0.747,2.701c-0.483,0.574-1.161,0.758-1.839,0.758
	c-0.655,0-1.368-0.172-1.84-0.758C278.711,63.676,278.55,62.676,278.55,61.768 M277.345,61.837c0,2.275,0.919,4.285,3.745,4.285
	c2.954,0,3.837-2.217,3.837-4.424c0-2.814-1.446-4.283-3.745-4.283c-0.771,0-1.908,0.183-2.77,1.112
	C277.506,59.504,277.345,60.895,277.345,61.837 M271.463,58.597h1.815c0.459,0,1.655,0,1.655,1.345c0,0.689-0.402,0.988-0.563,1.08
	c-0.311,0.185-0.966,0.185-1.092,0.185h-1.815V58.597z M270.349,65.927h1.136v-3.746h1.449c1.391,0,1.678,0.345,1.816,1.551
	c0.079,0.632,0.194,1.644,0.379,2.195h1.228c-0.321-0.919-0.402-1.632-0.517-2.608c-0.114-1.033-0.471-1.39-1.264-1.597
	c0.253-0.068,0.621-0.183,0.978-0.539c0.367-0.368,0.585-0.885,0.585-1.471c0-0.667-0.299-1.299-0.918-1.689
	c-0.609-0.39-1.483-0.39-1.908-0.39h-2.964V65.927z M261.79,57.633v5.055c0,1.241,0.229,1.725,0.482,2.091
	c0.77,1.103,2.148,1.32,2.929,1.32c0.599,0,1.862-0.126,2.679-1.146c0.665-0.827,0.677-1.759,0.677-2.206v-5.113h-1.113v5.09
	c0,0.597,0,2.355-2.242,2.355c-0.573,0-1.379-0.126-1.896-0.816c-0.172-0.241-0.368-0.609-0.368-1.493v-5.136H261.79z
	 M255.151,65.927h5.295v-1.01H256.3v-2.76h3.859v-0.963H256.3v-2.587h4.055v-0.975h-5.203V65.927z"/>
</svg>
