<?xml version="1.0" encoding="iso-8859-1"?>
<!-- Generator: Adobe Illustrator 19.0.0, SVG Export Plug-In . SVG Version: 6.00 Build 0)  -->
<!-- License: CC0. Made by undefinedSVG Repo -->
<svg version="1.1" id="Layer_1" xmlns="http://www.w3.org/2000/svg" xmlns:xlink="http://www.w3.org/1999/xlink" x="0px" y="0px" fill="#407839"
	 viewBox="0 0 512 512" style="enable-background:new 0 0 512 512;" xml:space="preserve">
<g>
	<g>
		<path d="M352.711,79.644v17.067c0,141.503-47.19,152.84-51.536,153.573l-203.251,0.027L0,236.322v102.747l85.999,12.286
			c16.047,47.06,60.69,81.001,113.112,81.001c51.917,0,96.197-33.291,112.633-79.644h0.802l0.098-0.217
			c43.31-1.643,80.411-12.972,110.408-33.753c27.071-18.754,48.362-45.174,63.282-78.526C512,182.843,512,120.268,512,96.711V79.644
			H352.711z M216.178,284.444h34.133v34.133h-34.133V284.444z M147.911,284.444h34.133v34.133h-34.133V284.444z M199.111,398.222
			c-32.676,0-61.107-18.47-75.439-45.511H274.55C260.218,379.753,231.787,398.222,199.111,398.222z"/>
	</g>
</g>
</svg>
