<?xml version="1.0" encoding="iso-8859-1"?>
<!-- Generator: Adobe Illustrator 19.0.0, SVG Export Plug-In . SVG Version: 6.00 Build 0)  -->
<!-- License: CC0. Made by undefinedSVG Repo -->
<svg version="1.1" id="Layer_1" xmlns="http://www.w3.org/2000/svg" xmlns:xlink="http://www.w3.org/1999/xlink" x="0px" y="0px" fill="#407839"
	 viewBox="0 0 512 512" style="enable-background:new 0 0 512 512;" xml:space="preserve">
<g>
	<g>
		<path d="M463.607,295.25L299.035,130.679l-12.928,12.928l161.838,161.847c-1.984,73.893-62.72,133.403-137.088,133.403v18.286
			c85.705,0,155.429-69.723,155.429-155.429C466.286,299.282,465.326,296.96,463.607,295.25z"/>
	</g>
</g>
<g>
	<g>
		<path d="M54.912,305.454L216.75,143.607l-12.928-12.928L39.25,295.25c-1.719,1.71-2.679,4.032-2.679,6.464
			c0,85.705,69.723,155.429,155.429,155.429v-18.286C117.632,438.857,56.896,379.346,54.912,305.454z"/>
	</g>
</g>
<g>
	<g>
		<path d="M466.286,0H45.714C20.507,0,0,20.507,0,45.714v420.571C0,491.493,20.507,512,45.714,512h420.571
			C491.493,512,512,491.493,512,466.286V45.714C512,20.507,491.493,0,466.286,0z M246.857,493.714H45.714
			c-15.122,0-27.429-12.306-27.429-27.429V45.714c0-15.122,12.306-27.429,27.429-27.429h201.143V493.714z M493.714,466.286
			c0,15.122-12.306,27.429-27.429,27.429H265.143V18.286h201.143c15.122,0,27.429,12.306,27.429,27.429V466.286z"/>
	</g>
</g>
<g>
	<g>
		<path d="M205.714,310.857h22.857v-18.286h-22.857c-7.561,0-13.714-6.153-13.714-13.714v-4.571h18.286V256h-27.429v-22.857
			c0-7.561,6.153-13.714,13.714-13.714h22.857v-18.286h-22.857c-17.646,0-32,14.354-32,32v23.323
			c-15.47,2.24-27.429,15.461-27.429,31.534c0,7.561-6.153,13.714-13.714,13.714H82.286V320h27.429v41.143c0,17.646,14.354,32,32,32
			h22.857c5.047,0,9.143,4.096,9.143,9.143c0,15.122,12.306,27.429,27.429,27.429h27.429v-18.286h-27.429
			c-5.047,0-9.143-4.096-9.143-9.143c0-15.122-12.306-27.429-27.429-27.429v-4.571c0-7.561,6.153-13.714,13.714-13.714h32v-18.286
			h-32c-17.646,0-32,14.354-32,32v4.571h-4.571c-7.561,0-13.714-6.153-13.714-13.714v-41.609
			c15.47-2.24,27.429-15.461,27.429-31.534c0-7.561,6.153-13.714,13.714-13.714h4.571v4.571
			C173.714,296.503,188.069,310.857,205.714,310.857z"/>
	</g>
</g>
<g>
	<g>
		<path d="M379.429,301.714c-7.561,0-13.714-6.153-13.714-13.714c0-16.073-11.959-29.294-27.429-31.534v-23.323
			c0-17.646-14.354-32-32-32h-22.857v18.286h22.857c7.561,0,13.714,6.153,13.714,13.714V256h-27.429v18.286h18.286v4.571
			c0,7.561-6.153,13.714-13.714,13.714h-22.857v18.286h22.857c17.646,0,32-14.354,32-32v-4.571h4.571
			c7.561,0,13.714,6.153,13.714,13.714c0,16.073,11.959,29.294,27.429,31.534v59.895c0,7.561-6.153,13.714-13.714,13.714h-77.714
			v18.286h77.714c17.646,0,32-14.354,32-32V320h27.429v-18.286H379.429z"/>
	</g>
</g>
<g>
	<g>
		<polygon points="344.75,335.607 331.822,322.679 320,334.501 308.178,322.679 295.25,335.607 307.072,347.429 295.25,359.25 
			308.178,372.178 320,360.357 331.822,372.178 344.75,359.25 332.928,347.429 		"/>
	</g>
</g>
<g>
	<g>
		<path d="M438.857,109.714c-5.047,0-9.143-4.096-9.143-9.143v-64h-18.286v64c0,15.122,12.306,27.429,27.429,27.429h36.571v-18.286
			H438.857z"/>
	</g>
</g>
<g>
	<g>
		<path d="M67.785,91.429h5.358c15.122,0,27.429-12.306,27.429-27.429S88.265,36.571,73.143,36.571H45.714
			c-5.056,0-9.143,4.087-9.143,9.143v36.498c0,0.046,0,0.091,0,0.137V128h18.286v-23.643l20.965,20.965
			c1.71,1.719,4.032,2.679,6.464,2.679h18.286v-18.286H86.071L67.785,91.429z M54.857,54.857h18.286
			c5.047,0,9.143,4.096,9.143,9.143s-4.096,9.143-9.143,9.143H54.857V54.857z"/>
	</g>
</g>
<g>
	<g>
		<rect x="118.857" y="73.143" width="18.286" height="18.286"/>
	</g>
</g>
<g>
	<g>
		<rect x="155.429" y="73.143" width="18.286" height="18.286"/>
	</g>
</g>
<g>
	<g>
		<rect x="192" y="73.143" width="18.286" height="18.286"/>
	</g>
</g>
<g>
	<g>
		<rect x="301.714" y="73.143" width="18.286" height="18.286"/>
	</g>
</g>
<g>
	<g>
		<rect x="338.286" y="73.143" width="18.286" height="18.286"/>
	</g>
</g>
<g>
	<g>
		<rect x="374.857" y="73.143" width="18.286" height="18.286"/>
	</g>
</g>
</svg>
