<?xml version="1.0" encoding="iso-8859-1"?>
<!-- Generator: Adobe Illustrator 18.0.0, SVG Export Plug-In . SVG Version: 6.00 Build 0)  -->
<!DOCTYPE svg PUBLIC "-//W3C//DTD SVG 1.1//EN" "http://www.w3.org/Graphics/SVG/1.1/DTD/svg11.dtd">
<!-- License: CC0. Made by undefinedSVG Repo -->
<svg version="1.1" id="Capa_1" xmlns="http://www.w3.org/2000/svg" xmlns:xlink="http://www.w3.org/1999/xlink" x="0px" y="0px" fill="#407839"
	 viewBox="0 0 60.166 60.166" style="enable-background:new 0 0 60.166 60.166;" xml:space="preserve">
<g>
	<path d="M52.94,38.126c4.362-5.669,7.143-11.842,7.143-15.96c0-8-4.587-8-6.791-8h-0.209c-0.991,0-1.974,0.229-2.844,0.661
		c-0.343,0.17-0.756,0.104-1.066-0.164c-1.111-0.966-2.563-1.497-4.09-1.497c-0.991,0-1.974,0.229-2.844,0.661
		c-0.344,0.169-0.756,0.104-1.066-0.164c-1.111-0.966-2.563-1.497-4.09-1.497c-1.844,0-3.524,0.797-4.634,2.06L29.808,3.17
		c-0.128-0.537-0.667-0.865-1.205-0.74c-0.537,0.128-0.868,0.668-0.74,1.205L30.49,14.63c-1.287-0.486-2.609-0.848-3.951-1.092
		c-0.156-0.029-0.313-0.058-0.47-0.084c-0.225-0.036-0.45-0.07-0.676-0.099c-0.353-0.047-0.706-0.084-1.059-0.113
		c-0.075-0.006-0.149-0.016-0.223-0.021c-0.463-0.033-0.925-0.047-1.385-0.049c-0.048,0-0.095-0.005-0.143-0.005
		c-0.125,0-0.25,0.007-0.375,0.009c-0.097,0.002-0.195-0.001-0.292,0.002l-1.836-7.684c-0.128-0.537-0.669-0.865-1.205-0.74
		c-0.537,0.128-0.868,0.668-0.74,1.205l1.761,7.37c-5.176,0.609-9.928,2.966-13.59,6.802C2.022,24.619-0.18,30.516,0.108,36.734
		c0.525,11.327,9.811,20.724,21.14,21.393c0.447,0.026,0.892,0.04,1.333,0.04c2.66,0,5.264-0.469,7.758-1.393l0.785,2.674
		c0.129,0.437,0.527,0.719,0.96,0.719c0.093,0,0.188-0.013,0.281-0.04c0.53-0.156,0.834-0.712,0.679-1.241l-1.089-3.71l-2.113-8.839
		l-1.96-8.201c0.716-0.61,1.798-0.936,3.226-0.969l0.161-0.002c1.935,0,2.936,0.812,3.844,2.029
		c0.861,1.154,1.563,2.491,2.093,3.982l0.162,0.502c0.149,0.463,0.287,0.931,0.4,1.403l1.789,7.486c0,0,0,0.001,0,0.001l1.555,6.506
		c0.109,0.459,0.52,0.768,0.972,0.768c0.077,0,0.155-0.009,0.233-0.027c0.537-0.128,0.868-0.668,0.74-1.205l-0.99-4.141
		c1.38-0.348,2.725-0.818,4.006-1.415c0.333-0.156,0.657-0.33,0.982-0.501l-2.178-2.178c-0.391-0.391-0.391-1.023,0-1.414
		s1.023-0.391,1.414,0l2.55,2.55c2.558-1.677,4.77-3.889,6.51-6.509c0.425-0.275,0.75-0.632,0.953-1.071
		C57.1,42.199,55.687,39.886,52.94,38.126z M54.487,43.091c-0.051,0.111-0.197,0.228-0.418,0.327
		c-0.042,0.019-0.081,0.037-0.134,0.056c-0.103,0.036-0.226,0.065-0.36,0.091c-0.064,0.012-0.136,0.022-0.21,0.032
		c-0.147,0.019-0.309,0.031-0.488,0.034c-0.039,0.001-0.07,0.005-0.111,0.005c-1.189,0-2.688-0.377-4.111-1.033
		c-0.702-0.324-1.362-0.707-1.946-1.119c-0.093-0.066-0.169-0.132-0.256-0.198c-0.176-0.133-0.351-0.266-0.509-0.404
		c-0.109-0.095-0.2-0.188-0.297-0.282c-0.119-0.114-0.236-0.229-0.34-0.344c-0.099-0.109-0.188-0.216-0.269-0.322
		c-0.051-0.067-0.105-0.134-0.149-0.199c-0.061-0.088-0.108-0.171-0.156-0.254c-0.046-0.081-0.093-0.162-0.128-0.238
		c-0.033-0.074-0.053-0.142-0.074-0.21c-0.02-0.064-0.043-0.13-0.052-0.188c-0.012-0.083-0.007-0.154,0.004-0.223
		c0.005-0.037,0.001-0.081,0.014-0.113l0.016-0.042c0.017-0.033,0.055-0.067,0.086-0.1c0.027-0.029,0.047-0.058,0.085-0.087
		c0.046-0.034,0.115-0.064,0.178-0.095c0.051-0.026,0.091-0.053,0.153-0.076c0.086-0.032,0.201-0.054,0.31-0.078
		c0.067-0.015,0.118-0.035,0.194-0.046c0.199-0.03,0.427-0.049,0.691-0.049c1.193,0,2.695,0.377,4.123,1.036
		C53.332,40.357,54.82,42.368,54.487,43.091z M31.619,24.963c-0.043,0.042-0.085,0.079-0.127,0.12
		c-0.235,0.225-0.469,0.436-0.7,0.623c-0.012,0.01-0.024,0.019-0.036,0.029c-1.041,0.836-2.01,1.287-2.675,1.398
		c-0.031,0.005-0.061,0.007-0.091,0.01c-0.126,0.015-0.241,0.02-0.34,0.009c-0.018-0.002-0.038-0.003-0.056-0.005
		c-0.108-0.018-0.197-0.053-0.263-0.105l-0.03-0.029c-0.024-0.023-0.037-0.063-0.057-0.092c-0.045-0.066-0.088-0.136-0.113-0.232
		c-0.004-0.014-0.004-0.034-0.007-0.049c-0.115-0.518,0.036-1.4,0.514-2.456c0.004-0.008,0.009-0.016,0.012-0.024
		c0.119-0.261,0.257-0.532,0.417-0.81c0.047-0.082,0.109-0.168,0.159-0.251c0.127-0.209,0.253-0.418,0.404-0.633
		c0.213-0.304,0.449-0.612,0.711-0.921c0.23-0.272,0.462-0.522,0.693-0.756c1.531-1.547,3.045-2.264,3.958-2.272
		c0.131,0.004,0.297,0.03,0.407,0.111c0.006,0.005,0.016,0.006,0.022,0.011c0.063,0.053,0.11,0.137,0.147,0.235
		c0.02,0.053,0.031,0.128,0.044,0.196c0.012,0.062,0.027,0.118,0.031,0.189c0.006,0.085-0.002,0.19-0.006,0.292
		c-0.004,0.078-0.003,0.15-0.013,0.235c-0.024,0.193-0.063,0.405-0.13,0.647c-0.318,1.149-1.083,2.497-2.099,3.697
		C32.137,24.433,31.878,24.708,31.619,24.963z M13.376,23.459c0.391-0.391,1.023-0.391,1.414,0l1.63,1.63
		c-0.631,0.293-1.226,0.646-1.769,1.059l-1.275-1.275C12.986,24.483,12.986,23.85,13.376,23.459z M9.083,37.166c0-0.553,0.447-1,1-1
		h1.565c0.179,0.476,0.385,0.943,0.648,1.388c-0.054,0.204-0.088,0.408-0.122,0.612h-2.092C9.531,38.166,9.083,37.719,9.083,37.166z
		 M15.082,48.166c-0.19,0-0.383-0.055-0.554-0.168c-0.46-0.307-0.584-0.927-0.277-1.387l1.275-1.912
		c0.341,0.149,0.695,0.272,1.068,0.345c0.194,0.253,0.405,0.492,0.627,0.718l-1.306,1.959C15.723,48.01,15.406,48.166,15.082,48.166
		z M36.715,37.998c-0.983-1.319-2.491-2.834-5.447-2.834l-0.208,0.002c-2.272,0.054-3.971,0.734-5.047,2.023l-0.321,0.385
		l1.809,7.571c-0.152-0.004-0.305-0.002-0.454-0.024l-0.356-0.053l-0.309,0.187c-0.983,0.596-2.124,0.911-3.298,0.911
		c-0.247,0-0.491-0.016-0.732-0.043c-0.089-0.01-0.177-0.029-0.265-0.042c-0.148-0.023-0.296-0.046-0.44-0.078
		c-0.109-0.025-0.216-0.057-0.323-0.087c-0.117-0.033-0.234-0.066-0.348-0.105c-0.119-0.041-0.235-0.088-0.351-0.136
		c-0.095-0.039-0.189-0.08-0.282-0.124c-0.125-0.059-0.247-0.123-0.366-0.19c-0.075-0.042-0.148-0.086-0.22-0.13
		c-0.127-0.079-0.253-0.161-0.374-0.249c-0.055-0.04-0.109-0.083-0.162-0.125c-0.129-0.101-0.256-0.204-0.376-0.315
		c-0.033-0.031-0.064-0.065-0.097-0.096c-0.132-0.128-0.261-0.259-0.381-0.4l0,0c-0.133-0.156-0.262-0.316-0.378-0.487l-0.261-0.384
		l-0.462-0.049c-0.208-0.022-0.408-0.069-0.603-0.129v0c-0.13-0.04-0.252-0.098-0.375-0.154c-0.066-0.03-0.134-0.054-0.198-0.088
		c-0.11-0.058-0.212-0.129-0.314-0.199c-0.07-0.048-0.141-0.094-0.207-0.147c-0.091-0.073-0.177-0.154-0.261-0.236
		c-0.068-0.067-0.136-0.135-0.2-0.207c-0.073-0.083-0.142-0.17-0.209-0.261c-0.064-0.087-0.124-0.177-0.18-0.27
		c-0.055-0.089-0.108-0.179-0.157-0.273c-0.056-0.11-0.104-0.225-0.151-0.341c-0.036-0.089-0.074-0.177-0.105-0.27
		c-0.046-0.14-0.078-0.286-0.11-0.433c-0.017-0.079-0.04-0.155-0.053-0.235c-0.037-0.232-0.059-0.47-0.059-0.715
		c0-0.18,0.023-0.365,0.048-0.549c0.023-0.15,0.052-0.3,0.088-0.451c0.035-0.146,0.063-0.291,0.113-0.438l0.158-0.467l-0.273-0.41
		c-0.147-0.221-0.27-0.453-0.39-0.686l0,0c-0.097-0.188-0.178-0.382-0.257-0.577c-0.032-0.081-0.066-0.161-0.095-0.243
		c-0.06-0.167-0.112-0.335-0.159-0.505c-0.037-0.14-0.068-0.281-0.096-0.422c-0.026-0.129-0.055-0.258-0.073-0.389
		c-0.039-0.286-0.065-0.574-0.065-0.864c0-0.266,0.019-0.529,0.051-0.787c0.009-0.078,0.026-0.155,0.038-0.232
		c0.029-0.182,0.062-0.363,0.105-0.54c0.02-0.081,0.043-0.16,0.066-0.24c0.051-0.176,0.107-0.35,0.172-0.52
		c0.026-0.068,0.052-0.135,0.079-0.202c0.081-0.194,0.17-0.383,0.269-0.568c0.019-0.037,0.037-0.074,0.057-0.111
		c0.522-0.937,1.263-1.753,2.16-2.385c0.567-0.4,1.196-0.724,1.872-0.962c0.202-0.071,0.407-0.134,0.616-0.189
		c0.012-0.003,0.024-0.005,0.036-0.009c0.196-0.051,0.396-0.095,0.598-0.131c0.065-0.011,0.131-0.018,0.197-0.028
		c0.156-0.024,0.312-0.048,0.472-0.062c0.235-0.021,0.472-0.034,0.712-0.034c0.707,0,1.412,0.111,2.097,0.326
		c0.191,0.06,0.379,0.132,0.567,0.209c0.035,0.014,0.071,0.024,0.105,0.039c0.813,0.344,1.587,0.847,2.301,1.483
		c0.067,0.06,0.136,0.114,0.202,0.176c0.012,0.013,0.026,0.024,0.039,0.037l0.127,0.128c0.467,0.395,1.077,0.603,1.766,0.603
		c1.828,0,4.179-1.435,6.133-3.744c1.213-1.434,2.101-3.016,2.499-4.456c0.177-0.638,0.251-1.229,0.227-1.76
		c-0.001-0.03-0.008-0.057-0.01-0.087c-0.01-0.145-0.023-0.289-0.048-0.424c-0.003-0.014-0.008-0.027-0.011-0.041
		c-0.029-0.148-0.065-0.291-0.112-0.427c-0.014-0.041-0.036-0.077-0.052-0.117c-0.042-0.104-0.083-0.209-0.136-0.305
		c-0.026-0.047-0.061-0.088-0.09-0.133c-0.052-0.081-0.101-0.165-0.162-0.239c-0.086-0.106-0.184-0.202-0.288-0.293
		c-0.01-0.008-0.017-0.019-0.026-0.027h0c-0.001-0.001-0.001-0.001-0.002-0.002c-0.002-0.002-0.005-0.003-0.008-0.005
		c-0.161-0.135-0.343-0.239-0.535-0.329c-0.042-0.02-0.084-0.04-0.128-0.057c-0.199-0.08-0.41-0.142-0.634-0.175
		c-0.059-0.036-0.12-0.067-0.179-0.103c-0.193-0.126-0.409-0.255-0.667-0.394c0.675-1.138,2.021-1.883,3.523-1.883
		c1.044,0,2.031,0.357,2.779,1.008c0.911,0.789,2.219,0.967,3.269,0.443c1.501-0.745,3.494-0.52,4.731,0.557
		c0.911,0.789,2.218,0.968,3.269,0.443c0.594-0.295,1.269-0.451,1.952-0.451h0.209c2.135,0,4.791,0,4.791,6
		c0,3.704-2.758,9.653-6.917,14.988c-1.704-0.786-3.464-1.219-4.958-1.219c-0.221,0-0.433,0.01-0.638,0.028
		c-1.429,0.131-2.443,0.714-2.875,1.653l-0.005,0.011c-0.003,0.006-0.006,0.01-0.009,0.016c-0.011,0.024-0.016,0.05-0.026,0.074
		l-0.026,0.065c-0.052,0.135-0.113,0.263-0.17,0.394c-0.054,0.124-0.106,0.249-0.165,0.369c-0.047,0.097-0.101,0.188-0.151,0.282
		c-0.079,0.146-0.158,0.292-0.245,0.431c-0.038,0.061-0.079,0.12-0.118,0.18c-0.111,0.169-0.225,0.335-0.347,0.493
		c-0.024,0.031-0.049,0.062-0.073,0.092c-0.141,0.178-0.288,0.35-0.443,0.513c-0.51,0.541-1.089,0.995-1.723,1.349
		c-0.092,0.052-0.185,0.101-0.279,0.148C38.341,40.543,37.603,39.189,36.715,37.998z M43.79,44.873
		c-0.195,0.195-0.451,0.293-0.707,0.293s-0.512-0.098-0.707-0.293l-1.608-1.608c0.556-0.37,1.071-0.8,1.54-1.288l1.482,1.482
		C44.181,43.85,44.181,44.483,43.79,44.873z"/>
	<path d="M33.052,39.792c-0.138-0.535-0.688-0.855-1.218-0.72c-0.535,0.138-0.857,0.684-0.72,1.218l4.414,17.138l0.419,1.428
		c0.129,0.436,0.527,0.718,0.96,0.718c0.093,0,0.188-0.013,0.282-0.04c0.529-0.156,0.833-0.712,0.678-1.242L33.052,39.792z"/>
	<path d="M24.509,10.099c0.107,0.462,0.519,0.773,0.973,0.773c0.075,0,0.151-0.009,0.228-0.026c0.538-0.125,0.873-0.662,0.747-1.2
		L24.39,0.773c-0.125-0.538-0.664-0.87-1.2-0.747c-0.538,0.125-0.873,0.662-0.747,1.2L24.509,10.099z"/>
</g>
</svg>
