<?xml version="1.0" encoding="iso-8859-1"?>
<!-- Generator: Adobe Illustrator 19.0.0, SVG Export Plug-In . SVG Version: 6.00 Build 0)  -->
<!-- License: CC0. Made by undefinedSVG Repo -->
<svg version="1.1" id="Layer_1" xmlns="http://www.w3.org/2000/svg" xmlns:xlink="http://www.w3.org/1999/xlink" x="0px" y="0px" fill="#407839"
	 viewBox="0 0 512 512" style="enable-background:new 0 0 512 512;" xml:space="preserve">
<g>
	<g>
		<path d="M512,160C512,71.781,397.157,0,256,0S0,71.781,0,160c0,74.139,77.76,135.826,187.52,154.331
			c-13.934,10.889-22.949,27.794-22.949,46.811c0,32.768,26.661,59.429,59.429,59.429h4.571V512h18.286V411.429v-36.571V320v-9.143
			v-27.429c0-3.547-2.048-6.766-5.248-8.274l-116.891-55.013c-20.224-9.509-33.289-30.107-33.289-52.453
			c0-31.963,26.011-57.975,57.975-57.975h213.184c31.973,0,57.984,26.011,57.984,57.975c0,22.345-13.065,42.944-33.289,52.453
			l-116.891,55.013c-3.2,1.509-5.248,4.727-5.248,8.274v27.429V320v54.857v36.571V512h18.286v-91.429H288
			c32.768,0,59.429-26.661,59.429-59.429c0-19.017-9.015-35.922-22.949-46.811C434.24,295.826,512,234.139,512,160z
			 M228.571,374.857v27.429H224c-22.683,0-41.143-18.459-41.143-41.143S201.317,320,224,320h4.571V374.857z M329.143,361.143
			c0,22.683-18.459,41.143-41.143,41.143h-4.571v-27.429V320H288C310.683,320,329.143,338.459,329.143,361.143z M283.429,300.745
			v-11.511l111.634-52.535c26.606-12.526,43.794-39.607,43.794-69.01c0-42.057-34.213-76.261-76.261-76.261H149.403
			c-42.048,0-76.261,34.203-76.261,76.261c0,29.403,17.189,56.485,43.794,69.01l111.634,52.535v11.511
			C109.906,292.544,18.286,231.817,18.286,160C18.286,81.856,124.928,18.286,256,18.286S493.714,81.856,493.714,160
			C493.714,231.817,402.094,292.544,283.429,300.745z"/>
	</g>
</g>
<g>
	<g>
		<rect x="246.857" y="54.857" width="18.286" height="18.286"/>
	</g>
</g>
<g>
	<g>
		<rect x="283.429" y="54.857" width="18.286" height="18.286"/>
	</g>
</g>
<g>
	<g>
		<rect x="210.286" y="54.857" width="18.286" height="18.286"/>
	</g>
</g>
</svg>
