<svg width="19" height="21" viewBox="0 0 19 21" fill="none" xmlns="http://www.w3.org/2000/svg">
<path fill-rule="evenodd" clip-rule="evenodd" d="M13.6335 1.27008L13.6345 2.01971C16.3892 2.2356 18.2088 4.11266 18.2118 6.99122L18.2226 15.417C18.2266 18.5554 16.2549 20.4865 13.0945 20.4915L5.37455 20.5015C2.23386 20.5054 0.237479 18.5284 0.23353 15.381L0.22267 7.05419C0.21872 4.15664 1.97419 2.28458 4.72883 2.0317L4.72785 1.28208C4.72686 0.842299 5.05268 0.511464 5.4871 0.511464C5.92153 0.510465 6.24734 0.8403 6.24833 1.28008L6.24932 1.97973L12.114 1.97173L12.1131 1.27208C12.1121 0.832304 12.4379 0.502469 12.8723 0.501469C13.2969 0.50047 13.6326 0.830305 13.6335 1.27008ZM1.74414 7.36303L16.6923 7.34304V6.99322C16.6498 4.84429 15.5717 3.71686 13.6365 3.54894L13.6375 4.31856C13.6375 4.74834 13.3028 5.08917 12.8782 5.08917C12.4438 5.09017 12.117 4.75034 12.117 4.32056L12.116 3.51096L6.25129 3.51896L6.25228 4.32755C6.25228 4.75834 5.92745 5.09817 5.49303 5.09817C5.0586 5.09917 4.7318 4.76034 4.7318 4.32955L4.73081 3.55994C2.80552 3.75284 1.74019 4.88427 1.74315 7.05219L1.74414 7.36303ZM12.4626 11.9058V11.9168C12.4724 12.3765 12.8476 12.7253 13.3028 12.7154C13.7471 12.7044 14.1015 12.3235 14.0917 11.8638C14.0709 11.424 13.7145 11.0652 13.2712 11.0662C12.817 11.0762 12.4616 11.446 12.4626 11.9058ZM13.2781 16.3935C12.8239 16.3835 12.4576 16.0047 12.4566 15.5449C12.4468 15.0852 12.8111 14.7044 13.2653 14.6934H13.2751C13.7392 14.6934 14.1154 15.0722 14.1154 15.5419C14.1163 16.0117 13.7412 16.3925 13.2781 16.3935ZM8.39478 11.9217C8.41453 12.3815 8.7907 12.7403 9.24487 12.7204C9.68917 12.6994 10.0436 12.3195 10.0239 11.8598C10.013 11.41 9.6477 11.0602 9.2034 11.0612C8.74923 11.0812 8.3938 11.462 8.39478 11.9217ZM9.24882 16.3485C8.79465 16.3685 8.41947 16.0097 8.39873 15.5499C8.39873 15.0902 8.75318 14.7104 9.20735 14.6894C9.65165 14.6884 10.018 15.0382 10.0278 15.487C10.0486 15.9477 9.69312 16.3275 9.24882 16.3485ZM4.32699 11.9567C4.34674 12.4165 4.72291 12.7763 5.17708 12.7553C5.62138 12.7353 5.97583 12.3545 5.9551 11.8948C5.94522 11.445 5.57991 11.0952 5.13463 11.0962C4.68046 11.1162 4.326 11.497 4.32699 11.9567ZM5.18103 16.3535C4.72686 16.3745 4.35167 16.0147 4.33094 15.5549C4.32995 15.0952 4.68539 14.7144 5.13956 14.6944C5.58386 14.6934 5.95016 15.0432 5.96003 15.493C5.98077 15.9527 5.62632 16.3335 5.18103 16.3535Z" fill="#73778C" fill-opacity="0.5"/>
</svg>
