<svg width="18" height="16" viewBox="0 0 18 16" fill="none" xmlns="http://www.w3.org/2000/svg">
<path fill-rule="evenodd" clip-rule="evenodd" d="M13.2791 0C14.4711 0 15.6178 0.471111 16.4613 1.31644C17.3058 2.16 17.7778 3.29778 17.7778 4.48889V11.5111C17.7778 13.9911 15.76 16 13.2791 16H4.49778C2.01689 16 0 13.9911 0 11.5111V4.48889C0 2.00889 2.008 0 4.49778 0H13.2791ZM14.6933 5.81296L14.7645 5.74185C14.9769 5.48407 14.9769 5.11074 14.7547 4.85296C14.6311 4.72052 14.4613 4.63963 14.2845 4.62185C14.0978 4.61207 13.92 4.67518 13.7858 4.79963L9.77779 7.99963C9.26224 8.42719 8.52357 8.42719 8.00001 7.99963L4.00001 4.79963C3.72357 4.59518 3.34135 4.62185 3.11113 4.86185C2.87113 5.10185 2.84446 5.48407 3.04801 5.75074L3.16446 5.8663L7.2089 9.02185C7.70668 9.41296 8.31024 9.6263 8.94224 9.6263C9.57246 9.6263 10.1867 9.41296 10.6836 9.02185L14.6933 5.81296Z" fill="url(#paint0_linear_634_663)"/>
<defs>
<linearGradient id="paint0_linear_634_663" x1="16.9252" y1="16" x2="0.0664854" y2="11.1279" gradientUnits="userSpaceOnUse">
<stop stop-color="#2B4AEE"/>
<stop offset="1" stop-color="#556FF6"/>
</linearGradient>
</defs>
</svg>
