<svg width="181" height="44" viewBox="0 0 181 44" fill="none" xmlns="http://www.w3.org/2000/svg">
<g clip-path="url(#clip0_902_914)">
<path d="M4.84774 20.5539C5.16022 20.6752 5.47946 20.775 5.81222 20.8481C7.351 21.1889 8.95903 20.903 10.5316 21.0426C11.0738 19.2804 11.6261 17.5232 12.1903 15.7694C12.4572 14.9398 12.8389 13.9956 13.6851 13.7396C14.4351 13.5135 15.2577 13.969 15.6935 14.6107C16.1293 15.2524 16.2661 16.0404 16.3945 16.8034C17.0853 16.7136 17.7897 16.7153 18.4805 16.8084C18.891 16.0437 18.9957 15.1543 19.3453 14.3613C19.695 13.5683 20.4466 12.8202 21.3199 12.9216C22.3486 13.0413 22.8536 14.1867 23.161 15.1593C23.7691 17.086 24.3772 19.0128 24.9853 20.9395C26.6136 21.0559 28.2909 21.1673 29.8448 20.6702C31.7248 20.0684 33.2095 18.6454 34.9865 17.7942C33.2889 14.9082 31.5897 12.0223 29.8921 9.13795C27.4733 10.4912 25.0562 11.8427 22.6374 13.1959C22.8046 13.1012 22.6307 11.2326 22.629 10.9783C22.6205 10.1986 22.607 9.41724 22.5867 8.63756C22.5665 7.78473 22.9533 5.29608 21.9483 5.07165C21.249 4.91538 20.325 5.07331 19.6072 5.07497C18.8133 5.07664 18.0194 5.0783 17.2255 5.08162C15.6378 5.08495 14.05 5.08994 12.4605 5.09326C12.5281 7.80468 12.4994 10.5178 12.3727 13.2275C9.94378 11.8793 7.51653 10.5344 5.09097 9.18782C3.39342 12.0672 1.69755 14.9448 0 17.8241C1.67728 18.6188 3.13836 19.8922 4.84774 20.5539Z" fill="#1337F5"/>
<path d="M32.218 24.5618C31.316 24.369 30.061 24.7447 29.1692 24.8428C26.774 25.1054 24.3704 25.3265 21.9617 25.4063C21.7726 25.413 21.5783 25.4196 21.406 25.4961C21.2168 25.5809 21.075 25.7421 20.9466 25.9034C20.3419 26.6631 19.8875 27.5392 19.619 28.4685C19.3284 29.471 19.0886 30.7261 18.0785 31.042C17.3437 31.2714 16.538 30.8225 16.0989 30.2008C15.6597 29.579 15.4925 28.816 15.2864 28.0845C15.0803 27.3547 14.8016 26.6 14.2138 26.1112C14.0956 26.6548 13.9216 27.2001 13.5736 27.6373C13.2257 28.0745 12.6784 28.3887 12.1159 28.3422C11.0332 28.2507 10.5164 27.0305 9.75119 26.2725C8.72083 25.2501 7.1432 25.0456 5.68888 24.8976C4.68049 24.7946 3.65858 24.6915 2.65694 24.8411C1.65529 24.9907 0.657032 25.4246 0.0388184 26.2143C1.72117 29.0786 3.40352 31.943 5.08587 34.8074C7.48947 33.4708 9.89307 32.1325 12.2967 30.7959C12.3068 33.3295 12.3169 35.863 12.3271 38.3966C12.3271 38.5561 12.3355 38.7324 12.4487 38.8437C12.5602 38.9551 12.7375 38.9651 12.8963 38.9684C16.136 39.0283 19.3757 39.0133 22.6137 38.9252C22.5614 36.2254 22.5985 33.5223 22.7235 30.8242C25.117 32.1558 27.5122 33.4874 29.9056 34.8207C31.6032 31.9231 33.3024 29.0271 35 26.1295C35.0574 26.0314 32.6454 24.6932 32.3954 24.6134C32.3379 24.5901 32.2788 24.5751 32.218 24.5618Z" fill="#FD523E"/>
<path d="M34.3093 22.6732C30.8044 22.6599 27.2995 22.6449 23.7963 22.6316C23.6527 22.6316 22.9314 19.9784 22.847 19.7141C22.5244 18.7216 22.2001 17.7291 21.8774 16.7383C21.7153 16.2429 21.5548 15.7459 21.3927 15.2504C21.364 15.1607 21.266 14.632 21.1562 14.6121C20.9839 14.5805 20.8994 15.0643 20.8606 15.1756C20.5076 16.1664 20.1546 17.1589 19.7998 18.1497C19.0431 20.271 18.2881 22.3922 17.5314 24.5152C16.398 21.4496 15.2646 18.3858 14.1312 15.3203C13.2427 18.0849 12.3559 20.8478 11.4675 23.6125C11.3611 23.2085 10.9134 22.9043 10.4253 22.768C9.93714 22.6316 9.40845 22.6333 8.88989 22.6366C6.15185 22.6516 3.41212 22.6665 0.674072 22.6832C3.27192 23.0073 5.87146 23.3315 8.4693 23.6557C8.87469 23.7056 9.29528 23.7621 9.6331 23.9499C9.87295 24.0846 10.0503 24.2758 10.2243 24.4636C10.9033 25.1984 11.5806 25.9316 12.2597 26.6663C12.9252 24.6282 13.589 22.5901 14.2545 20.5503C15.3575 23.5111 16.4605 26.4735 17.5618 29.4343C18.7222 26.1992 19.8826 22.9641 21.0413 19.7307C21.5008 21.0906 21.9602 22.4521 22.4213 23.812C26.3874 23.4329 30.3534 23.0539 34.3177 22.6749C34.3177 22.6732 34.3127 22.6732 34.3093 22.6732Z" fill="#252F4B"/>
</g>
<path d="M52.878 31.494C51.4393 31.494 50.1913 31.2253 49.134 30.688C48.094 30.1333 47.288 29.336 46.716 28.296C46.1613 27.256 45.884 25.9907 45.884 24.5V23.538H50.096V24.734C50.096 25.566 50.3387 26.242 50.824 26.762C51.3267 27.2647 52.0113 27.516 52.878 27.516C53.7273 27.516 54.3947 27.2647 54.88 26.762C55.3827 26.242 55.634 25.566 55.634 24.734V15.218H59.898V24.5C59.898 25.9907 59.612 27.256 59.04 28.296C58.4853 29.336 57.6793 30.1333 56.622 30.688C55.582 31.2253 54.334 31.494 52.878 31.494ZM48.094 15.738V12.02H59.898V15.738H48.094ZM70.547 31.494C69.299 31.494 68.1897 31.3033 67.219 30.922C66.2484 30.5233 65.425 29.986 64.749 29.31C64.0904 28.634 63.5877 27.8627 63.241 26.996C62.8944 26.112 62.721 25.1847 62.721 24.214V23.616C62.721 22.628 62.8944 21.692 63.241 20.808C63.605 19.9067 64.125 19.118 64.801 18.442C65.4944 17.766 66.3264 17.2373 67.297 16.856C68.2677 16.4573 69.351 16.258 70.547 16.258C71.7777 16.258 72.8697 16.4573 73.823 16.856C74.7937 17.2373 75.617 17.766 76.293 18.442C76.969 19.118 77.489 19.9067 77.853 20.808C78.217 21.692 78.399 22.628 78.399 23.616V24.214C78.399 25.1847 78.2257 26.112 77.879 26.996C77.5324 27.8627 77.021 28.634 76.345 29.31C75.6864 29.986 74.8717 30.5233 73.901 30.922C72.9304 31.3033 71.8124 31.494 70.547 31.494ZM70.547 27.984C71.3617 27.984 72.0377 27.8107 72.575 27.464C73.1124 27.1173 73.5197 26.632 73.797 26.008C74.0917 25.384 74.239 24.6907 74.239 23.928C74.239 23.1133 74.0917 22.4027 73.797 21.796C73.5024 21.172 73.0777 20.678 72.523 20.314C71.9857 19.95 71.327 19.768 70.547 19.768C69.7844 19.768 69.1257 19.95 68.571 20.314C68.0164 20.678 67.5917 21.172 67.297 21.796C67.0197 22.4027 66.881 23.1133 66.881 23.928C66.881 24.6907 67.0197 25.384 67.297 26.008C67.5744 26.632 67.9904 27.1173 68.545 27.464C69.0997 27.8107 69.767 27.984 70.547 27.984ZM81.3023 31V12.02H85.4623V22.966H84.8383C84.8383 21.5273 85.0203 20.314 85.3843 19.326C85.7483 18.338 86.2856 17.5927 86.9963 17.09C87.707 16.57 88.5996 16.31 89.6743 16.31H89.8563C91.4336 16.31 92.6383 16.8733 93.4703 18C94.3023 19.1093 94.7183 20.7387 94.7183 22.888V31H90.5583V22.628C90.5583 21.848 90.3243 21.224 89.8563 20.756C89.4056 20.2707 88.8076 20.028 88.0623 20.028C87.2823 20.028 86.6496 20.2793 86.1643 20.782C85.6963 21.2847 85.4623 21.952 85.4623 22.784V31H81.3023ZM106.869 31V26.788H106.167V22.212C106.167 21.484 105.994 20.938 105.647 20.574C105.301 20.21 104.746 20.028 103.983 20.028C103.602 20.028 103.099 20.0367 102.475 20.054C101.851 20.0713 101.21 20.0973 100.551 20.132C99.8926 20.1667 99.2946 20.2013 98.7572 20.236V16.726C99.1559 16.6913 99.6239 16.6567 100.161 16.622C100.699 16.5873 101.253 16.5613 101.825 16.544C102.397 16.5267 102.935 16.518 103.437 16.518C104.893 16.518 106.115 16.726 107.103 17.142C108.109 17.558 108.871 18.1907 109.391 19.04C109.911 19.872 110.171 20.9467 110.171 22.264V31H106.869ZM102.319 31.364C101.297 31.364 100.395 31.182 99.6152 30.818C98.8526 30.454 98.2546 29.934 97.8212 29.258C97.3879 28.5647 97.1712 27.7413 97.1712 26.788C97.1712 25.748 97.4399 24.8987 97.9772 24.24C98.5146 23.564 99.2686 23.07 100.239 22.758C101.21 22.4287 102.328 22.264 103.593 22.264H106.635V24.578H103.567C102.839 24.578 102.276 24.76 101.877 25.124C101.496 25.4707 101.305 25.9473 101.305 26.554C101.305 27.126 101.496 27.594 101.877 27.958C102.276 28.3047 102.839 28.478 103.567 28.478C104.035 28.478 104.451 28.4 104.815 28.244C105.197 28.0707 105.509 27.7847 105.751 27.386C105.994 26.9873 106.133 26.4327 106.167 25.722L107.155 26.762C107.069 27.75 106.826 28.582 106.427 29.258C106.046 29.934 105.509 30.454 104.815 30.818C104.139 31.182 103.307 31.364 102.319 31.364ZM113.935 31V12.02H119.811L124.153 22.68H124.647L128.937 12.02H134.917V31H130.705V14.802L131.303 14.854L126.285 27.152H122.229L117.185 14.854L117.835 14.802V31H113.935ZM145.465 31.494C144.252 31.494 143.177 31.286 142.241 30.87C141.322 30.454 140.551 29.8993 139.927 29.206C139.32 28.4953 138.852 27.7067 138.523 26.84C138.211 25.956 138.055 25.0547 138.055 24.136V23.616C138.055 22.6627 138.211 21.7527 138.523 20.886C138.852 20.002 139.32 19.2133 139.927 18.52C140.534 17.8267 141.288 17.2807 142.189 16.882C143.108 16.466 144.148 16.258 145.309 16.258C146.834 16.258 148.117 16.6047 149.157 17.298C150.214 17.974 151.02 18.8667 151.575 19.976C152.13 21.068 152.407 22.264 152.407 23.564V24.968H139.797V22.602H149.885L148.533 23.694C148.533 22.8447 148.412 22.1167 148.169 21.51C147.926 20.9033 147.562 20.444 147.077 20.132C146.609 19.8027 146.02 19.638 145.309 19.638C144.581 19.638 143.966 19.8027 143.463 20.132C142.96 20.4613 142.579 20.9467 142.319 21.588C142.059 22.212 141.929 22.9833 141.929 23.902C141.929 24.7513 142.05 25.4967 142.293 26.138C142.536 26.762 142.917 27.2473 143.437 27.594C143.957 27.9407 144.633 28.114 145.465 28.114C146.228 28.114 146.852 27.9667 147.337 27.672C147.822 27.3773 148.152 27.0133 148.325 26.58H152.147C151.939 27.5333 151.532 28.3827 150.925 29.128C150.318 29.8733 149.556 30.454 148.637 30.87C147.718 31.286 146.661 31.494 145.465 31.494ZM161.04 31.468C160.034 31.468 159.116 31.286 158.284 30.922C157.469 30.558 156.758 30.0553 156.152 29.414C155.545 28.7553 155.077 27.984 154.748 27.1C154.436 26.216 154.28 25.2627 154.28 24.24V23.642C154.28 22.6193 154.427 21.666 154.722 20.782C155.034 19.898 155.476 19.1267 156.048 18.468C156.637 17.792 157.339 17.272 158.154 16.908C158.968 16.5267 159.878 16.336 160.884 16.336C162.028 16.336 163.016 16.5873 163.848 17.09C164.68 17.5753 165.33 18.3033 165.798 19.274C166.266 20.2273 166.526 21.406 166.578 22.81L165.486 21.796V12.02H169.672V31H166.37V25.098H166.942C166.89 26.45 166.604 27.6027 166.084 28.556C165.581 29.5093 164.896 30.2373 164.03 30.74C163.163 31.2253 162.166 31.468 161.04 31.468ZM162.08 27.984C162.721 27.984 163.302 27.8453 163.822 27.568C164.359 27.2733 164.784 26.8487 165.096 26.294C165.425 25.7393 165.59 25.072 165.59 24.292V23.33C165.59 22.5673 165.425 21.926 165.096 21.406C164.766 20.886 164.333 20.4873 163.796 20.21C163.258 19.9327 162.678 19.794 162.054 19.794C161.36 19.794 160.736 19.976 160.182 20.34C159.644 20.6867 159.22 21.172 158.908 21.796C158.596 22.4027 158.44 23.1133 158.44 23.928C158.44 24.76 158.596 25.4793 158.908 26.086C159.22 26.6927 159.653 27.1607 160.208 27.49C160.762 27.8193 161.386 27.984 162.08 27.984ZM174.121 31V16.752H178.281V31H174.121ZM172.223 19.82V16.752H178.281V19.82H172.223ZM175.733 15.348C174.953 15.348 174.372 15.1487 173.991 14.75C173.627 14.334 173.445 13.814 173.445 13.19C173.445 12.5487 173.627 12.0287 173.991 11.63C174.372 11.214 174.953 11.006 175.733 11.006C176.513 11.006 177.085 11.214 177.449 11.63C177.83 12.0287 178.021 12.5487 178.021 13.19C178.021 13.814 177.83 14.334 177.449 14.75C177.085 15.1487 176.513 15.348 175.733 15.348Z" fill="#252F4B"/>
<defs>
<clipPath id="clip0_902_914">
<rect width="35" height="34" fill="white" transform="translate(0 5)"/>
</clipPath>
</defs>
</svg>
