<svg width="18" height="21" viewBox="0 0 18 21" fill="none" xmlns="http://www.w3.org/2000/svg">
<path fill-rule="evenodd" clip-rule="evenodd" d="M0.389648 8.81922C0.389648 4.21936 4.23353 0.501465 8.88309 0.501465C13.5458 0.501465 17.3896 4.21936 17.3896 8.81922C17.3896 11.1372 16.5467 13.2891 15.1591 15.113C13.6285 17.125 11.7418 18.8779 9.61819 20.2539C9.13216 20.5719 8.69352 20.5959 8.1601 20.2539C6.02438 18.8779 4.13774 17.125 2.62015 15.113C1.23163 13.2891 0.389648 11.1372 0.389648 8.81922ZM6.08388 9.07822C6.08388 10.6192 7.34131 11.8311 8.88309 11.8311C10.4259 11.8311 11.6954 10.6192 11.6954 9.07822C11.6954 7.54926 10.4259 6.2783 8.88309 6.2783C7.34131 6.2783 6.08388 7.54926 6.08388 9.07822Z" fill="#73778C" fill-opacity="0.5"/>
</svg>
