<?xml version="1.0" encoding="utf-8"?>
<!-- Generator: Adobe Illustrator 22.1.0, SVG Export Plug-In . SVG Version: 6.00 Build 0)  -->
<svg version="1.1" id="Layer_1" xmlns="http://www.w3.org/2000/svg" xmlns:xlink="http://www.w3.org/1999/xlink" x="0px" y="0px"
	 viewBox="0 0 395 39" style="enable-background:new 0 0 395 39;" xml:space="preserve">
<style type="text/css">
	.st0{fill:#000836;}
</style>
<desc>Created with Sketch.</desc>
<g>
	<path class="st0" d="M64.2,30.3c0,4.5-3.8,7.5-10.1,7.5c-8.7,0-12.1-6-13.4-9.5L38,28.8c0.6,3.3,1.6,7.6,2.3,9.2l-15.3,0
		c0.8-2.4,2.1-6.7,2.4-8.1l-2.6-0.3c-1.1,2.3-2.6,4.3-4,5.6c-1.8,1.5-4.1,2.1-10.4,2.1c-4.5,0-7.2-0.1-8.6-0.8
		C0.5,35.7,0,34.3,0,31.3V20.1h7.7c7.2,0.3,8.8,0,8.8,3.3H19V13.2h-2.5c0,3.2-1.3,3.1-8.9,3.2H0V3.6c0-1.8,0.2-2,2.7-2h5.8
		c5.9,0,8.2,0.4,9.5,1.7c1.2,1.1,2.1,2.6,2.9,5L23.4,8c-0.3-2-0.6-5.4-0.7-7.4h22.4c-3.5,2-5.4,5-5.4,8.2c0,6.7,8.5,10,14,12.3
		C59.7,23.6,64.2,26,64.2,30.3z M106.6,18.1c3.2-1.8,4.7-4.6,4.7-7.9c0-6.7-6-9.3-12-9.3c-2.1,0-3.7,0.3-4.4,0.6c-0.7,0.4-1,1-1,2.7
		v15.6h4C101.8,19.8,104.4,19.3,106.6,18.1z M81.1,0.7l-13.4,0C68,2.5,68.4,4.5,69,7.2l-2.6,0.4c-1.2-2.9-2.6-5.7-6.3-6.9
		c0,0-2.4-0.7-4.7-0.7c-2.3,0-4.3,0.7-4.3,0.7c-3.2,1.1-4.8,3.6-4.8,6c0,4.4,4.1,6.7,10.5,9.2c6,2.3,14.6,5.5,14.6,12.4
		c0,4.2-3,7.7-7.8,9.7l15.8,0c6.7,0,7.4-0.7,7.4-5.9V6.4C86.7,1.6,86.1,0.7,81.1,0.7z M103.2,24.2c-1.3-1.7-2.6-2.5-6-2.5h-3.2V32
		c0,5.2,0.9,5.9,7.3,5.9l14.9,0c-1.6-0.9-3-2.1-4.5-3.6C109,31.6,105.7,27.4,103.2,24.2z M140.9,34.2c0,2.1,1.7,3.7,3.7,3.7l17.6,0
		l2.2-6.9L149,19.8h19.1l5.9-18.3l5.9,18.3l0-19.1h-35.3c-2.1,0-3.7,1.7-3.7,3.7V34.2z M138.8,34.2V4.4c0-2.1-1.7-3.7-3.7-3.7
		l-22.1,0c0.2,0.1,0.4,0.2,0.6,0.3c3.4,1.7,5.7,4.4,5.7,8.1c0,5.4-4.6,8.8-11,10.9c1.5,2,5,6.3,7.5,9.1c3,3.3,4.7,4.8,6.7,6.5
		c1.5,1.2,2.7,1.9,3.9,2.4l8.7,0C137.2,38,138.8,36.3,138.8,34.2z M193.3,0.7h10v2.6h-7.1V6h6.2v2.6h-6.2v2.8h7.2v2.6h-10.1V0.7z
		 M205.7,8.2V0.7h2.9v7.5c0,2.2,1.1,3.3,2.9,3.3c1.8,0,2.9-1.1,2.9-3.2V0.7h2.9v7.5c0,4-2.3,6-5.8,6
		C207.9,14.1,205.7,12.1,205.7,8.2z M220.2,0.7h6.1c1.7,0,3,0.5,3.9,1.3c0.7,0.7,1.1,1.8,1.1,3v0c0,2.1-1.2,3.5-2.8,4.1l3.2,4.7
		h-3.4l-2.8-4.2h-2.3v4.2h-2.9V0.7z M226.1,7.1c1.4,0,2.2-0.8,2.2-1.9v0c0-1.2-0.9-1.9-2.3-1.9h-2.9v3.8H226.1z M233.3,7.3
		L233.3,7.3c0-3.8,3-6.9,7.1-6.9c4.1,0,7,3,7,6.8v0c0,3.8-3,6.8-7.1,6.8C236.3,14.1,233.3,11.1,233.3,7.3z M244.4,7.3L244.4,7.3
		c0-2.3-1.7-4.2-4-4.2s-4,1.9-4,4.1v0c0,2.3,1.7,4.2,4,4.2C242.7,11.5,244.4,9.6,244.4,7.3z M250,0.7h5.4c3.2,0,5.1,1.9,5.1,4.6v0
		c0,3.1-2.4,4.7-5.4,4.7h-2.2v4H250V0.7z M255.2,7.4c1.5,0,2.3-0.9,2.3-2v0c0-1.3-0.9-2-2.4-2h-2.3v4H255.2z M262.6,0.7h10v2.6h-7.1
		V6h6.2v2.6h-6.2v2.8h7.2v2.6h-10.1V0.7z M279.8,0.6h2.7l5.7,13.3h-3l-1.2-3h-5.6l-1.2,3h-3L279.8,0.6z M282.9,8.4l-1.8-4.3
		l-1.8,4.3H282.9z M290.2,0.7h2.7l6.2,8.2V0.7h2.9v13.2h-2.5l-6.4-8.4v8.4h-2.9V0.7z M310.3,12l0.9-1.1c1.4,1.2,2.7,1.9,4.5,1.9
		c1.8,0,3-0.9,3-2.3v0c0-1.2-0.7-1.9-3.4-2.5c-3-0.7-4.4-1.6-4.4-3.8v0c0-2.1,1.8-3.6,4.4-3.6c1.9,0,3.3,0.5,4.7,1.6l-0.9,1.2
		c-1.2-1-2.5-1.4-3.8-1.4c-1.7,0-2.8,0.9-2.8,2.1v0c0,1.2,0.7,1.9,3.6,2.6c3,0.6,4.3,1.7,4.3,3.7v0c0,2.3-1.9,3.7-4.5,3.7
		C313.6,14.1,311.9,13.4,310.3,12z M322.7,7.3L322.7,7.3c0-3.7,2.7-6.9,6.8-6.9c4,0,6.7,3.2,6.7,6.8v0c0,3.7-2.7,6.8-6.8,6.8
		C325.4,14.1,322.7,11,322.7,7.3z M334.6,7.3L334.6,7.3c0-3-2.2-5.5-5.2-5.5c-3,0-5.2,2.4-5.2,5.4v0c0,3,2.2,5.5,5.2,5.5
		C332.5,12.8,334.6,10.3,334.6,7.3z M338.7,7.3L338.7,7.3c0-3.8,2.8-6.9,6.7-6.9c2.4,0,3.8,0.9,5.2,2.1l-1,1.1
		c-1.1-1.1-2.4-1.8-4.2-1.8c-2.9,0-5.1,2.4-5.1,5.4v0c0,3.1,2.2,5.5,5.1,5.5c1.8,0,3-0.7,4.3-1.9l1,1c-1.4,1.4-2.9,2.3-5.3,2.3
		C341.6,14.1,338.7,11.1,338.7,7.3z M353.4,0.7h1.5v13.2h-1.5V0.7z M358.8,0.7h9.6V2h-8.1v4.5h7.2v1.4h-7.2v4.6h8.2v1.4h-9.7V0.7z
		 M375,2.1h-4.4V0.7h10.4v1.4h-4.4v11.9H375V2.1z M387.9,8.7l-5.5-8h1.8l4.5,6.6l4.5-6.6h1.7l-5.5,8v5.3h-1.5V8.7z M192.7,29.3
		L192.7,29.3c0-4.9,3.6-9.1,8.9-9.1c5.3,0,8.9,4.2,8.9,9v0.1c0,4.8-3.6,9-8.9,9C196.3,38.3,192.7,34.1,192.7,29.3z M208.5,29.3
		L208.5,29.3c0-4-2.9-7.3-6.9-7.3s-6.8,3.2-6.8,7.2v0.1c0,4,2.9,7.2,6.9,7.2S208.5,33.3,208.5,29.3z M214.7,20.5h12.5v1.8h-10.6v6.2
		h9.5v1.8h-9.5V38h-2V20.5z M238.2,20.5h8c2.2,0,3.9,0.6,5.1,1.8c1,1,1.5,2.3,1.5,4v0.1c0,2.8-1.5,4.6-3.7,5.4l4.3,6.2h-4.5
		l-3.7-5.6h-3V38h-3.8V20.5z M245.9,29c1.9,0,2.9-1,2.9-2.5v-0.1c0-1.6-1.1-2.5-3-2.5H242v5H245.9z M262.2,20.4h3.5l7.5,17.6h-4
		l-1.6-3.9h-7.4l-1.6,3.9h-3.9L262.2,20.4z M266.2,30.7l-2.3-5.7l-2.3,5.7H266.2z M275.9,20.5h6.8c5.5,0,9.3,3.8,9.3,8.7v0.1
		c0,4.9-3.8,8.7-9.3,8.7h-6.8V20.5z M279.7,24v10.5h3c3.1,0,5.3-2.1,5.3-5.2v0c0-3.1-2.1-5.3-5.3-5.3H279.7z M295.6,20.5h3.8V38
		h-3.8V20.5z M303,29.3L303,29.3c0-5,3.9-9.1,9.3-9.1c5.4,0,9.3,4,9.3,9v0.1c0,5-3.9,9-9.3,9C306.9,38.3,303,34.3,303,29.3z
		 M317.6,29.3L317.6,29.3c0-3-2.2-5.5-5.3-5.5c-3.1,0-5.2,2.4-5.2,5.4v0.1c0,3,2.2,5.5,5.3,5.5C315.4,34.8,317.6,32.3,317.6,29.3z
		 M325,20.5h3.8v14h8.7V38H325V20.5z M338.7,29.3L338.7,29.3c0-5,3.9-9.1,9.3-9.1c5.4,0,9.3,4,9.3,9v0.1c0,5-3.9,9-9.3,9
		C342.5,38.3,338.7,34.3,338.7,29.3z M353.2,29.3L353.2,29.3c0-3-2.2-5.5-5.3-5.5c-3.1,0-5.2,2.4-5.2,5.4v0.1c0,3,2.2,5.5,5.3,5.5
		C351.1,34.8,353.2,32.3,353.2,29.3z M359.9,29.3L359.9,29.3c0-5,3.9-9.1,9.2-9.1c3.1,0,5,0.8,6.9,2.4l-2.4,2.9
		c-1.3-1.1-2.5-1.8-4.6-1.8c-2.8,0-5,2.5-5,5.4v0.1c0,3.2,2.2,5.5,5.3,5.5c1.4,0,2.6-0.3,3.6-1v-2.5h-3.9v-3.3h7.6v7.6
		c-1.8,1.5-4.3,2.8-7.5,2.8C363.6,38.3,359.9,34.5,359.9,29.3z M384.3,31.1l-6.7-10.6h4.5l4.2,7l4.2-7h4.4L388.2,31v7h-3.8V31.1z"/>
</g>
</svg>
